<svg width="396" height="69" viewBox="0 0 396 69" fill="none" xmlns="http://www.w3.org/2000/svg">
<path d="M39.0719 68.7154L108.943 0H96.1039L39.102 56.0561L12.8513 30.0861C10.7007 28.0007 9.39522 25.2166 9.17864 22.2537C9.17864 22.0464 9.17864 21.8539 9.17864 21.6466C9.16876 20.0055 9.48752 18.3787 10.1168 16.8588C10.7461 15.339 11.6736 13.9559 12.8463 12.7887C14.019 11.6214 15.4139 10.6927 16.9514 10.0557C18.4889 9.41876 20.1389 9.08591 21.8072 9.07618C23.4755 9.06646 25.1295 9.38006 26.6746 9.99908C28.2196 10.6181 29.6256 11.5304 30.8123 12.684C31.9989 13.8375 32.943 15.2096 33.5905 16.722C34.2381 18.2345 34.5765 19.8575 34.5864 21.4986H43.6176C43.6216 18.1855 44.9613 15.0093 47.3428 12.6666C49.7244 10.3239 52.9534 9.00609 56.3215 9.00217H76.8975L85.9287 0.0444167H56.2612C52.9296 0.0418905 49.6422 0.793831 46.6535 2.24194C43.6649 3.69004 41.0552 5.79546 39.0267 8.39511C35.5728 3.99022 30.5127 1.07946 24.9164 0.278474C19.3201 -0.522512 13.6265 0.849083 9.03973 4.10314C4.45299 7.3572 1.33278 12.2386 0.338999 17.7149C-0.654777 23.1912 0.555844 28.833 3.71476 33.4471C4.08569 33.9762 4.5038 34.4716 4.9641 34.9277L39.0719 68.7154Z" fill="#F9F9FB"/>
<path d="M392.388 23.5239C393.011 23.5304 393.622 23.6935 394.164 23.9977C394.733 24.2958 395.203 24.7479 395.518 25.3006C395.83 25.8485 395.995 26.4647 396 27.0922C396.001 27.7158 395.835 28.3285 395.518 28.8689C395.213 29.4282 394.747 29.8866 394.179 30.1867C393.629 30.4875 393.01 30.6453 392.38 30.6453C391.751 30.6453 391.132 30.4875 390.581 30.1867C390.016 29.8824 389.551 29.4251 389.242 28.8689C388.958 28.3292 388.813 27.7293 388.82 27.1218C388.823 26.4921 388.994 25.8741 389.317 25.3303C389.624 24.7711 390.096 24.3167 390.672 24.0273C391.192 23.7211 391.782 23.548 392.388 23.5239ZM392.388 24.1162C391.861 24.1185 391.343 24.2509 390.882 24.5011C390.405 24.7564 390.013 25.142 389.754 25.6116C389.489 26.0618 389.35 26.5724 389.35 27.0922C389.35 27.612 389.489 28.1227 389.754 28.5728C390.012 29.0344 390.398 29.4143 390.867 29.6685C391.325 29.9294 391.844 30.0673 392.373 30.0682C392.903 30.0703 393.425 29.9344 393.885 29.6744C394.344 29.4144 394.726 29.0395 394.992 28.5876C395.245 28.1338 395.38 27.6249 395.383 27.107C395.382 26.5869 395.242 26.0762 394.977 25.6264C394.717 25.1568 394.325 24.7711 393.848 24.5159C393.398 24.2825 392.896 24.1606 392.388 24.1606V24.1162ZM390.792 29.0614V25.2266H392.132C392.466 25.2159 392.8 25.2508 393.125 25.3303C393.325 25.4016 393.498 25.5306 393.622 25.7004C393.738 25.866 393.801 26.062 393.802 26.2631C393.803 26.5389 393.695 26.8042 393.501 27.0034C393.285 27.2154 392.994 27.3373 392.689 27.3439C392.808 27.3974 392.92 27.4672 393.02 27.5512C393.237 27.7823 393.429 28.0354 393.592 28.3063L394.073 29.0614H393.336L392.99 28.4544C392.826 28.1211 392.601 27.8201 392.327 27.566C392.181 27.4698 392.007 27.423 391.831 27.4327H391.454V29.0614H390.792ZM391.424 26.8997H392.192C392.45 26.9329 392.711 26.8752 392.929 26.7368C392.996 26.6894 393.05 26.627 393.086 26.5548C393.123 26.4827 393.141 26.4029 393.14 26.3223C393.137 26.2106 393.101 26.1024 393.035 26.0114C392.968 25.92 392.873 25.8524 392.764 25.8189C392.564 25.759 392.355 25.734 392.147 25.7449H391.424V26.8997Z" fill="#F9F9FB"/>
<path d="M131.972 23.0792C136.137 23.0149 140.166 24.5376 143.216 27.3286C143.308 27.4078 143.382 27.5056 143.433 27.6154C143.484 27.7252 143.51 27.8445 143.51 27.9652C143.51 28.0859 143.484 28.2052 143.433 28.315C143.382 28.4248 143.308 28.5227 143.216 28.6019L141.168 30.66C140.852 31.0745 140.431 31.0745 140.009 30.66C137.778 28.7437 134.933 27.659 131.972 27.5951C128.778 27.5951 125.715 28.843 123.457 31.0644C121.199 33.2857 119.93 36.2985 119.93 39.44C119.93 42.5815 121.199 45.5943 123.457 47.8156C125.715 50.037 128.778 51.2849 131.972 51.2849C134.907 51.2534 137.737 50.2048 139.964 48.3237C140.117 48.1874 140.315 48.1119 140.521 48.1119C140.727 48.1119 140.926 48.1874 141.078 48.3237L143.216 50.3817C143.299 50.4617 143.365 50.5573 143.41 50.6628C143.455 50.7684 143.479 50.8817 143.479 50.9962C143.479 51.1107 143.455 51.2241 143.41 51.3296C143.365 51.4351 143.299 51.5307 143.216 51.6107C140.198 54.5017 136.139 56.0988 131.927 56.0525C127.487 56.0525 123.23 54.3179 120.091 51.2302C116.952 48.1425 115.189 43.9547 115.189 39.5881C115.189 35.2214 116.952 31.0336 120.091 27.9459C123.23 24.8582 127.487 23.1236 131.927 23.1236L131.972 23.0792Z" fill="#F9F9FB"/>
<path d="M154.848 54.3649L169.057 23.5829C169.141 23.4435 169.257 23.3254 169.395 23.238C169.534 23.1506 169.691 23.0963 169.855 23.0795H170.307C170.47 23.0963 170.628 23.1506 170.766 23.238C170.905 23.3254 171.021 23.4435 171.104 23.5829L185.283 54.3649C185.355 54.4919 185.39 54.6357 185.385 54.7808C185.38 54.926 185.335 55.067 185.254 55.1887C185.174 55.3105 185.061 55.4084 184.928 55.472C184.795 55.5355 184.648 55.5623 184.501 55.5494H181.565C181.337 55.5637 181.109 55.5051 180.917 55.3825C180.724 55.2598 180.577 55.0796 180.497 54.8683L177.607 48.6053H162.404C161.471 50.7078 160.508 52.7658 159.574 54.8683C159.48 55.0698 159.33 55.2408 159.141 55.3614C158.951 55.482 158.731 55.5472 158.506 55.5494H155.571C155.429 55.5511 155.289 55.5162 155.164 55.4481C155.04 55.38 154.937 55.2811 154.863 55.1613C154.79 55.0414 154.751 54.9048 154.748 54.7651C154.745 54.6254 154.78 54.4874 154.848 54.3649ZM175.921 44.6669L170.201 32.1261H169.975L164.301 44.6669H175.921Z" fill="#F9F9FB"/>
<path d="M199.296 24.3973C199.296 24.1656 199.389 23.9434 199.556 23.7796C199.722 23.6158 199.948 23.5237 200.184 23.5237H212.827C214.148 23.5101 215.458 23.7531 216.682 24.2388C217.907 24.7245 219.022 25.4434 219.963 26.3542C220.904 27.2649 221.653 28.3496 222.167 29.5459C222.681 30.7423 222.95 32.0267 222.957 33.3254C222.899 35.3755 222.211 37.3601 220.983 39.0175C219.755 40.6748 218.045 41.927 216.079 42.6089L222.446 54.2317C222.531 54.3648 222.578 54.5185 222.581 54.6761C222.584 54.8337 222.543 54.989 222.462 55.1251C222.382 55.2612 222.264 55.3727 222.123 55.4476C221.982 55.5224 221.823 55.5577 221.663 55.5495H218.035C217.886 55.554 217.737 55.5177 217.607 55.4445C217.477 55.3713 217.37 55.2642 217.298 55.1349L211.112 43.0234H204.082V54.6759C204.075 54.9052 203.979 55.1232 203.814 55.2854C203.649 55.4477 203.427 55.5421 203.194 55.5495H200.184C199.948 55.5495 199.722 55.4574 199.556 55.2936C199.389 55.1298 199.296 54.9076 199.296 54.6759V24.3973ZM212.451 39.085C213.963 39.0579 215.404 38.449 216.465 37.3888C217.526 36.3287 218.122 34.9018 218.126 33.4142C218.083 31.9595 217.467 30.5781 216.408 29.5615C215.35 28.5449 213.931 27.9727 212.451 27.9656H204.173V39.085H212.451Z" fill="#F9F9FB"/>
<path d="M238.66 24.3975C238.658 24.2835 238.679 24.1702 238.722 24.0643C238.765 23.9584 238.829 23.862 238.91 23.7807C238.991 23.6993 239.088 23.6347 239.195 23.5907C239.302 23.5466 239.417 23.5239 239.533 23.5239H258.137C258.372 23.5239 258.598 23.6159 258.765 23.7798C258.931 23.9436 259.025 24.1658 259.025 24.3975V26.959C259.025 27.1906 258.931 27.4128 258.765 27.5766C258.598 27.7405 258.372 27.8325 258.137 27.8325H243.446V37.1604H255.864C256.096 37.168 256.316 37.2629 256.478 37.4255C256.641 37.5881 256.733 37.8059 256.737 38.0339V40.5954C256.739 40.7094 256.718 40.8227 256.675 40.9286C256.632 41.0345 256.568 41.1309 256.487 41.2122C256.405 41.2936 256.309 41.3582 256.202 41.4022C256.095 41.4463 255.98 41.469 255.864 41.469H243.446V51.3003H258.137C258.372 51.3003 258.598 51.3923 258.765 51.5561C258.931 51.72 259.025 51.9422 259.025 52.1739V54.6761C259.025 54.9077 258.931 55.13 258.765 55.2938C258.598 55.4576 258.372 55.5497 258.137 55.5497H239.533C239.417 55.5497 239.302 55.527 239.195 55.4829C239.088 55.4388 238.991 55.3742 238.91 55.2929C238.829 55.2116 238.765 55.1152 238.722 55.0092C238.679 54.9033 238.658 54.7901 238.66 54.6761V24.3975Z" fill="#F9F9FB"/>
<path d="M289.61 23.0794C293.78 23.0113 297.815 24.5342 300.869 27.3288C300.961 27.408 301.035 27.5058 301.086 27.6156C301.137 27.7255 301.163 27.8448 301.163 27.9655C301.163 28.0861 301.137 28.2054 301.086 28.3152C301.035 28.4251 300.961 28.5229 300.869 28.6021L298.822 30.6602C298.506 31.0748 298.084 31.0748 297.663 30.6602C295.431 28.7439 292.586 27.6592 289.625 27.5953C286.431 27.5953 283.368 28.8432 281.11 31.0646C278.852 33.286 277.583 36.2988 277.583 39.4402C277.583 42.5817 278.852 45.5945 281.11 47.8159C283.368 50.0372 286.431 51.2852 289.625 51.2852C292.56 51.2536 295.39 50.2051 297.617 48.3239C297.77 48.1876 297.968 48.1121 298.174 48.1121C298.38 48.1121 298.579 48.1876 298.731 48.3239L300.869 50.382C300.952 50.462 301.018 50.5575 301.063 50.6631C301.109 50.7686 301.132 50.8819 301.132 50.9964C301.132 51.1109 301.109 51.2243 301.063 51.3298C301.018 51.4353 300.952 51.5309 300.869 51.6109C297.845 54.5014 293.781 56.0981 289.565 56.0527C285.125 56.0527 280.868 54.3181 277.729 51.2304C274.59 48.1427 272.827 43.9549 272.827 39.5883C272.827 35.2217 274.59 31.0338 277.729 27.9462C280.868 24.8585 285.125 23.1238 289.565 23.1238L289.61 23.0794Z" fill="#F9F9FB"/>
<path d="M317.338 24.3973C317.338 24.1656 317.432 23.9434 317.598 23.7796C317.765 23.6158 317.991 23.5237 318.226 23.5237H330.87C332.191 23.5101 333.502 23.753 334.727 24.2385C335.952 24.7241 337.068 25.4427 338.011 26.3533C338.953 27.2638 339.704 28.3484 340.219 29.5448C340.735 30.7413 341.005 32.026 341.015 33.3254C340.953 35.3744 340.263 37.3572 339.035 39.0138C337.808 40.6704 336.1 41.9235 334.136 42.6089L340.503 54.2317C340.59 54.3658 340.637 54.5211 340.64 54.6801C340.642 54.8391 340.6 54.9956 340.517 55.1322C340.434 55.2688 340.314 55.3802 340.171 55.4539C340.028 55.5275 339.867 55.5606 339.705 55.5495H336.138C335.989 55.5508 335.842 55.5131 335.712 55.4403C335.583 55.3674 335.475 55.262 335.401 55.1349L329.214 43.0234H322.185V54.6759C322.181 54.9039 322.088 55.1218 321.926 55.2844C321.763 55.447 321.544 55.5419 321.312 55.5495H318.302C318.066 55.5495 317.84 55.4574 317.674 55.2936C317.507 55.1298 317.413 54.9075 317.413 54.6759L317.338 24.3973ZM330.509 39.085C332.018 39.054 333.455 38.4435 334.513 37.3837C335.571 36.324 336.165 34.8993 336.168 33.4142C336.125 31.962 335.512 30.5828 334.456 29.5666C333.401 28.5504 331.986 27.9765 330.509 27.9656H322.23V39.085H330.509Z" fill="#F9F9FB"/>
<path d="M357.202 24.3975C357.206 24.1695 357.299 23.9516 357.461 23.789C357.624 23.6264 357.844 23.5315 358.075 23.5239H361.191C361.426 23.5239 361.652 23.6159 361.819 23.7798C361.985 23.9436 362.079 24.1658 362.079 24.3975V43.2902C362.079 47.8653 365.089 51.4335 369.801 51.4335C370.865 51.4544 371.921 51.2573 372.904 50.855C373.886 50.4526 374.773 49.8537 375.508 49.0963C376.242 48.3389 376.809 47.4396 377.171 46.4553C377.533 45.4711 377.684 44.4235 377.613 43.379V24.3975C377.613 24.2828 377.636 24.1691 377.68 24.0632C377.725 23.9572 377.79 23.8609 377.873 23.7798C377.955 23.6986 378.053 23.6343 378.161 23.5904C378.269 23.5465 378.384 23.5239 378.501 23.5239H381.616C381.848 23.5315 382.068 23.6264 382.23 23.789C382.393 23.9516 382.486 24.1695 382.489 24.3975V43.6455C382.489 46.944 381.157 50.1075 378.786 52.4399C376.415 54.7723 373.199 56.0827 369.846 56.0827C366.493 56.0827 363.277 54.7723 360.905 52.4399C358.534 50.1075 357.202 46.944 357.202 43.6455V24.3975Z" fill="#F9F9FB"/>
</svg>
