<svg width="160" height="28" viewBox="0 0 160 28" fill="none" xmlns="http://www.w3.org/2000/svg">
<g clip-path="url(#clip0_1698_2269)">
<path d="M158.23 9.58832C158.479 9.58832 158.711 9.65947 158.943 9.784C159.175 9.90852 159.353 10.0864 159.478 10.3177C159.603 10.5489 159.674 10.798 159.674 11.047C159.674 11.2961 159.603 11.5451 159.478 11.7764C159.353 12.0076 159.175 12.1855 158.943 12.31C158.711 12.4346 158.479 12.5057 158.212 12.5057C157.962 12.5057 157.712 12.4346 157.481 12.31C157.249 12.1855 157.07 12.0076 156.945 11.7764C156.821 11.5451 156.749 11.3139 156.749 11.047C156.749 10.798 156.821 10.5489 156.945 10.3177C157.07 10.0864 157.249 9.90852 157.498 9.784C157.748 9.64168 157.998 9.58832 158.23 9.58832ZM158.23 9.81958C158.033 9.81958 157.819 9.87294 157.641 9.97968C157.445 10.0864 157.302 10.2287 157.195 10.4244C157.088 10.6201 157.035 10.8158 157.035 11.0292C157.035 11.2427 157.088 11.4384 157.195 11.6341C157.302 11.8297 157.445 11.9721 157.641 12.0788C157.837 12.1855 158.033 12.2389 158.248 12.2389C158.462 12.2389 158.658 12.1855 158.854 12.0788C159.05 11.9721 159.193 11.8297 159.3 11.6341C159.407 11.4384 159.46 11.2427 159.46 11.0292C159.46 10.8158 159.407 10.6201 159.3 10.4244C159.193 10.2287 159.032 10.0864 158.854 9.97968C158.64 9.87294 158.444 9.81958 158.23 9.81958ZM157.588 11.8475V10.2821H158.123C158.301 10.2821 158.444 10.2999 158.515 10.3177C158.604 10.3532 158.658 10.3888 158.711 10.46C158.765 10.5311 158.783 10.6023 158.783 10.6912C158.783 10.798 158.747 10.9047 158.658 10.9937C158.569 11.0826 158.462 11.1182 158.337 11.136C158.39 11.1538 158.444 11.1893 158.462 11.2249C158.533 11.2783 158.604 11.385 158.693 11.5273L158.89 11.8297H158.586L158.444 11.5807C158.337 11.385 158.248 11.2605 158.176 11.2249C158.123 11.1893 158.069 11.1715 157.98 11.1715H157.837V11.8297H157.588V11.8475ZM157.855 10.9581H158.158C158.301 10.9581 158.408 10.9403 158.462 10.8869C158.515 10.8513 158.533 10.7802 158.533 10.709C158.533 10.6557 158.515 10.6201 158.497 10.5845C158.479 10.5489 158.444 10.5133 158.39 10.4956C158.337 10.4778 158.265 10.46 158.14 10.46H157.855V10.9581Z" fill="#232F77"/>
<path d="M53.5845 9.39264C55.4751 9.39264 56.8307 10.033 58.1149 11.1182C58.2754 11.2605 58.2754 11.4917 58.1327 11.6341L57.3123 12.4701C57.1874 12.6302 57.0091 12.6302 56.8485 12.4701C55.9746 11.7052 54.7795 11.2249 53.6202 11.2249C50.9447 11.2249 48.9292 13.4663 48.9292 16.0635C48.9292 18.6785 50.9626 20.8844 53.638 20.8844C54.9936 20.8844 55.9567 20.3507 56.8485 19.6569C57.0091 19.5324 57.1874 19.5502 57.2944 19.6391L58.1506 20.4752C58.2933 20.5998 58.2576 20.8488 58.1327 20.9733C56.8664 22.2008 55.2611 22.7878 53.5845 22.7878C49.8389 22.7878 46.8424 19.817 46.8424 16.0991C46.8424 12.3812 49.8389 9.39264 53.5845 9.39264Z" fill="#232F77"/>
<path d="M62.7702 22.1474L68.5134 9.60611C68.5669 9.49937 68.7453 9.39264 68.8345 9.39264H69.0128C69.102 9.39264 69.2804 9.48158 69.3339 9.60611L75.0415 22.1474C75.1485 22.3965 75.0058 22.6277 74.7204 22.6277H73.5432C73.3114 22.6277 73.1865 22.521 73.1152 22.3431L71.9558 19.7815H65.838C65.4634 20.6353 65.071 21.4714 64.6965 22.3431C64.643 22.4676 64.4824 22.6277 64.2684 22.6277H63.0912C62.8058 22.6277 62.6631 22.3965 62.7702 22.1474ZM71.2424 18.1982L68.9415 13.0928H68.8523L66.5693 18.1982H71.2424Z" fill="#232F77"/>
<path d="M80.642 9.9441C80.642 9.76621 80.7847 9.58832 80.9988 9.58832H86.0821C88.3295 9.58832 90.1488 11.3672 90.1488 13.5731C90.1488 15.2808 89.0072 16.7039 87.3841 17.3621L89.9526 22.094C90.0774 22.3431 89.9526 22.6277 89.6315 22.6277H88.1689C88.0262 22.6277 87.9014 22.5388 87.8657 22.4676L85.3865 17.5222H82.5683V22.2719C82.5683 22.4498 82.4078 22.6277 82.2116 22.6277H80.9988C80.7847 22.6277 80.642 22.4676 80.642 22.2719V9.9441ZM85.9216 15.9212C87.1344 15.9212 88.2046 14.8895 88.2046 13.6086C88.2046 12.399 87.1344 11.385 85.9216 11.385H82.5862V15.9212H85.9216Z" fill="#232F77"/>
<path d="M96.4449 9.9441C96.4449 9.76621 96.5876 9.58832 96.8017 9.58832H104.275C104.489 9.58832 104.632 9.74842 104.632 9.9441V10.9937C104.632 11.1715 104.489 11.3494 104.275 11.3494H98.3713V15.1563H103.365C103.544 15.1563 103.722 15.3164 103.722 15.5121V16.5438C103.722 16.7573 103.562 16.8996 103.365 16.8996H98.3713V20.9022H104.275C104.489 20.9022 104.632 21.0623 104.632 21.258V22.2897C104.632 22.4676 104.489 22.6455 104.275 22.6455H96.8017C96.5876 22.6455 96.4449 22.4854 96.4449 22.2897V9.9441Z" fill="#232F77"/>
<path d="M116.939 9.39264C118.829 9.39264 120.185 10.033 121.469 11.1182C121.63 11.2605 121.63 11.4917 121.487 11.6341L120.667 12.4701C120.542 12.6302 120.363 12.6302 120.203 12.4701C119.329 11.7052 118.134 11.2249 116.974 11.2249C114.299 11.2249 112.284 13.4663 112.284 16.0635C112.284 18.6785 114.317 20.8844 116.992 20.8844C118.348 20.8844 119.311 20.3507 120.203 19.6569C120.363 19.5324 120.542 19.5502 120.649 19.6391L121.505 20.4752C121.648 20.5998 121.612 20.8488 121.487 20.9733C120.221 22.2008 118.615 22.7878 116.939 22.7878C113.193 22.7878 110.197 19.817 110.197 16.0991C110.197 12.3812 113.193 9.39264 116.939 9.39264Z" fill="#232F77"/>
<path d="M128.069 9.9441C128.069 9.76621 128.211 9.58832 128.425 9.58832H133.509C135.756 9.58832 137.575 11.3672 137.575 13.5731C137.575 15.2808 136.434 16.7039 134.811 17.3621L137.379 22.094C137.504 22.3431 137.379 22.6277 137.058 22.6277H135.596C135.453 22.6277 135.328 22.5388 135.292 22.4676L132.831 17.5222H130.013V22.2719C130.013 22.4498 129.852 22.6277 129.656 22.6277H128.443C128.229 22.6277 128.086 22.4676 128.086 22.2719V9.9441H128.069ZM133.366 15.9212C134.579 15.9212 135.649 14.8895 135.649 13.6086C135.649 12.399 134.579 11.385 133.366 11.385H130.048V15.9212H133.366Z" fill="#232F77"/>
<path d="M144.068 9.9441C144.068 9.76621 144.228 9.58832 144.424 9.58832H145.673C145.887 9.58832 146.03 9.74842 146.03 9.9441V17.6468C146.03 19.5146 147.225 20.9733 149.133 20.9733C151.06 20.9733 152.272 19.5324 152.272 17.7001V9.9441C152.272 9.76621 152.415 9.58832 152.629 9.58832H153.878C154.056 9.58832 154.234 9.74842 154.234 9.9441V17.7713C154.234 20.5998 152.094 22.8234 149.133 22.8234C146.19 22.8234 144.068 20.5998 144.068 17.7713V9.9441Z" fill="#232F77"/>
<path d="M15.9857 28L44.0599 0H38.9053L15.9857 22.8412L5.44448 12.2389C4.58834 11.385 4.03542 10.2465 3.96407 9.05464C3.96407 8.96569 3.96407 8.89454 3.96407 8.80559C3.9284 6.15502 6.01524 3.87802 8.67284 3.66455C11.6693 3.43329 14.1842 5.79924 14.1842 8.73443H17.8228C17.8228 5.92376 20.1059 3.64676 22.924 3.64676H31.2L34.8386 0H22.924C20.1059 0 17.591 1.35197 15.9857 3.4155C14.3091 1.22745 11.598 -0.142313 8.60149 0.0177891C3.94623 0.266836 0.254133 4.18043 0.307642 8.84117C0.325478 10.5667 0.842729 12.2033 1.80589 13.6264C1.94858 13.8399 2.12694 14.0534 2.3053 14.2313L15.9857 28Z" fill="url(#paint0_linear_1698_2269)"/>
<path opacity="0.45" d="M14.1664 8.73442C14.2199 6.75983 14.8977 4.87419 15.9857 3.41549C15.4863 2.75729 14.9156 2.22362 14.2734 1.72552C13.5065 2.70392 12.9001 3.75348 12.472 4.94535C13.6313 6.01269 14.1486 7.32908 14.1664 8.73442Z" fill="#1D1D1B"/>
</g>
<defs>
<linearGradient id="paint0_linear_1698_2269" x1="0.307642" y1="13.9966" x2="44.0521" y2="13.9966" gradientUnits="userSpaceOnUse">
<stop stop-color="#1A47F4"/>
<stop offset="0.0840153" stop-color="#2444EF"/>
<stop offset="0.2274" stop-color="#3F3DE0"/>
<stop offset="0.4126" stop-color="#6B31C8"/>
<stop offset="0.6302" stop-color="#A820A7"/>
<stop offset="0.7403" stop-color="#C91795"/>
<stop offset="0.9996" stop-color="#FF006F"/>
</linearGradient>
<clipPath id="clip0_1698_2269">
<rect width="159.385" height="28" fill="white" transform="translate(0.307678)"/>
</clipPath>
</defs>
</svg>
