<svg width="45" height="28" viewBox="0 0 45 28" fill="none" xmlns="http://www.w3.org/2000/svg">
<path d="M15.9857 28L44.0599 0H38.9053L15.9857 22.8412L5.44448 12.2389C4.58834 11.385 4.03542 10.2465 3.96407 9.05464C3.96407 8.96569 3.96407 8.89454 3.96407 8.80559C3.9284 6.15502 6.01524 3.87802 8.67284 3.66455C11.6693 3.43329 14.1842 5.79924 14.1842 8.73444H17.8228C17.8228 5.92376 20.1059 3.64676 22.924 3.64676H31.2L34.8386 0H22.924C20.1059 0 17.591 1.35197 15.9857 3.4155C14.3091 1.22745 11.598 -0.142313 8.60149 0.0177891C3.94623 0.266836 0.254133 4.18043 0.307642 8.84117C0.325478 10.5667 0.842729 12.2033 1.80589 13.6264C1.94858 13.8399 2.12694 14.0534 2.3053 14.2313L15.9857 28Z" fill="url(#paint0_linear_1698_2279)"/>
<defs>
<linearGradient id="paint0_linear_1698_2279" x1="0.307642" y1="13.9966" x2="44.0521" y2="13.9966" gradientUnits="userSpaceOnUse">
<stop stop-color="#1A47F4"/>
<stop offset="0.0840153" stop-color="#2444EF"/>
<stop offset="0.2274" stop-color="#3F3DE0"/>
<stop offset="0.4126" stop-color="#6B31C8"/>
<stop offset="0.6302" stop-color="#A820A7"/>
<stop offset="0.7403" stop-color="#C91795"/>
<stop offset="0.9996" stop-color="#FF006F"/>
</linearGradient>
</defs>
</svg>
