<svg width="48" height="28" viewBox="0 0 48 28" fill="none" xmlns="http://www.w3.org/2000/svg">
<path d="M19.6786 28L47.7529 0H42.5982L19.6786 22.8412L9.13741 12.2389C8.28127 11.385 7.72835 10.2465 7.657 9.05464C7.657 8.96569 7.657 8.89454 7.657 8.80559C7.62133 6.15502 9.70817 3.87802 12.3658 3.66455C15.3623 3.43329 17.8772 5.79924 17.8772 8.73443H21.5158C21.5158 5.92376 23.7988 3.64676 26.6169 3.64676H34.8929L38.5315 0H26.6169C23.7988 0 21.2839 1.35197 19.6786 3.4155C18.002 1.22745 15.2909 -0.142313 12.2944 0.0177891C7.63917 0.266836 3.94707 4.18043 4.00057 8.84117C4.01841 10.5667 4.53566 12.2033 5.49882 13.6264C5.64151 13.8399 5.81987 14.0534 5.99823 14.2313L19.6786 28Z" fill="url(#paint0_linear_5420_98718)"/>
<path opacity="0.45" d="M17.8592 8.73448C17.9127 6.75989 18.5905 4.87425 19.6785 3.41555C19.1791 2.75735 18.6084 2.22368 17.9663 1.72559C17.1993 2.70399 16.5929 3.75354 16.1648 4.94541C17.3242 6.01275 17.8414 7.32914 17.8592 8.73448Z" fill="#1D1D1B"/>
<defs>
<linearGradient id="paint0_linear_5420_98718" x1="4.00057" y1="13.9966" x2="47.745" y2="13.9966" gradientUnits="userSpaceOnUse">
<stop stop-color="#1A47F4"/>
<stop offset="0.0840153" stop-color="#2444EF"/>
<stop offset="0.2274" stop-color="#3F3DE0"/>
<stop offset="0.4126" stop-color="#6B31C8"/>
<stop offset="0.6302" stop-color="#A820A7"/>
<stop offset="0.7403" stop-color="#C91795"/>
<stop offset="0.9996" stop-color="#FF006F"/>
</linearGradient>
</defs>
</svg>
