<svg width="157" height="29" viewBox="0 0 157 29" fill="none" xmlns="http://www.w3.org/2000/svg">
<path d="M15.9524 28.0554L44.4798 0H39.2377L15.9647 22.8869L5.247 12.2837C4.36893 11.4323 3.83592 10.2955 3.7475 9.08582C3.7475 9.00119 3.7475 8.9226 3.7475 8.83797C3.74346 8.16795 3.87361 7.50373 4.13054 6.88319C4.38747 6.26266 4.76615 5.69799 5.24493 5.22141C5.72372 4.74483 6.29324 4.36568 6.92099 4.1056C7.54874 3.84553 8.2224 3.70963 8.90354 3.70566C9.58468 3.7017 10.26 3.82973 10.8908 4.08247C11.5216 4.33521 12.0957 4.7077 12.5802 5.17867C13.0647 5.64963 13.4501 6.20986 13.7145 6.82735C13.9789 7.44484 14.1171 8.10752 14.1211 8.77753H17.8084C17.81 7.42487 18.357 6.12806 19.3293 5.17158C20.3017 4.2151 21.6201 3.67705 22.9952 3.67545H31.3961L35.0834 0.0181346H22.9706C21.6103 0.0171032 20.2681 0.324109 19.0479 0.915347C17.8277 1.50659 16.7622 2.3662 15.934 3.42759C14.5238 1.62915 12.4579 0.440727 10.173 0.113697C7.88811 -0.213334 5.56348 0.346668 3.69078 1.67525C1.81809 3.00383 0.544152 4.99682 0.138408 7.23271C-0.267335 9.4686 0.226942 11.7721 1.51668 13.6559C1.66812 13.8719 1.83883 14.0742 2.02677 14.2604L15.9524 28.0554Z" fill="url(#paint0_linear_5420_98704)"/>
<g style="mix-blend-mode:multiply" opacity="0.28">
<path d="M14.1154 8.75937C14.1583 6.8361 14.802 4.97244 15.9591 3.42151C15.4646 2.78192 14.8788 2.2159 14.2199 1.74097C13.428 2.71147 12.805 3.80432 12.3762 4.97511C12.9227 5.44821 13.3605 6.0304 13.6603 6.6829C13.9602 7.33541 14.1154 8.04328 14.1154 8.75937V8.75937Z" fill="#1D1D1B"/>
</g>
<path d="M53.8319 9.42621C55.5325 9.39997 57.1774 10.0217 58.4226 11.1612C58.4604 11.1935 58.4907 11.2334 58.5115 11.2783C58.5322 11.3231 58.543 11.3718 58.543 11.4211C58.543 11.4704 58.5322 11.5191 58.5115 11.5639C58.4907 11.6088 58.4604 11.6487 58.4226 11.6811L57.5868 12.5213C57.4578 12.6906 57.2857 12.6906 57.1137 12.5213C56.2025 11.739 55.0411 11.2961 53.8319 11.27C52.528 11.27 51.2775 11.7795 50.3555 12.6864C49.4335 13.5934 48.9155 14.8235 48.9155 16.1061C48.9155 17.3887 49.4335 18.6188 50.3555 19.5257C51.2775 20.4327 52.528 20.9422 53.8319 20.9422C55.0304 20.9293 56.1859 20.5012 57.0952 19.7332C57.1574 19.6775 57.2385 19.6467 57.3226 19.6467C57.4067 19.6467 57.4877 19.6775 57.55 19.7332L58.4226 20.5734C58.4567 20.6061 58.4837 20.6451 58.5021 20.6882C58.5206 20.7313 58.5301 20.7776 58.5301 20.8243C58.5301 20.8711 58.5206 20.9173 58.5021 20.9604C58.4837 21.0035 58.4567 21.0425 58.4226 21.0752C57.1906 22.2555 55.5333 22.9076 53.8135 22.8887C52.0011 22.8887 50.2629 22.1805 48.9813 20.9198C47.6997 19.6592 46.9797 17.9494 46.9797 16.1665C46.9797 14.3837 47.6997 12.6739 48.9813 11.4132C50.2629 10.1526 52.0011 9.44435 53.8135 9.44435L53.8319 9.42621Z" fill="#232F77"/>
<path d="M63.1721 22.1997L68.9735 9.63192C69.0077 9.57502 69.0549 9.5268 69.1115 9.49111C69.1681 9.45542 69.2324 9.43325 69.2992 9.42639H69.4836C69.5504 9.43325 69.6147 9.45542 69.6712 9.49111C69.7278 9.5268 69.775 9.57502 69.8092 9.63192L75.5983 22.1997C75.6276 22.2516 75.6419 22.3103 75.6398 22.3696C75.6377 22.4288 75.6193 22.4864 75.5864 22.5361C75.5535 22.5858 75.5076 22.6258 75.4534 22.6517C75.3991 22.6777 75.3388 22.6886 75.2788 22.6834H74.0804C73.9869 22.6892 73.8941 22.6653 73.8155 22.6152C73.7369 22.5651 73.6768 22.4915 73.644 22.4053L72.4641 19.8482H66.2572C65.8762 20.7066 65.4828 21.5469 65.1018 22.4053C65.0634 22.4875 65.0019 22.5574 64.9247 22.6066C64.8474 22.6559 64.7575 22.6825 64.6655 22.6834H63.4671C63.4091 22.6841 63.3519 22.6698 63.3013 22.642C63.2506 22.6142 63.2082 22.5738 63.1784 22.5249C63.1485 22.476 63.1323 22.4202 63.1312 22.3631C63.1301 22.3061 63.1442 22.2498 63.1721 22.1997V22.1997ZM71.7758 18.2402L69.4405 13.12H69.3483L67.0315 18.2402H71.7758Z" fill="#232F77"/>
<path d="M81.3193 9.96443C81.3193 9.86983 81.3575 9.77911 81.4255 9.71222C81.4935 9.64533 81.5857 9.60777 81.6819 9.60777H86.8441C87.3832 9.60218 87.918 9.7014 88.4179 9.89971C88.9179 10.098 89.3731 10.3915 89.7574 10.7634C90.1417 11.1352 90.4475 11.5781 90.6573 12.0665C90.8671 12.555 90.9768 13.0794 90.98 13.6096C90.9564 14.4467 90.6753 15.2569 90.1739 15.9336C89.6725 16.6103 88.9743 17.1215 88.1715 17.3999L90.7711 22.1454C90.8061 22.1997 90.8253 22.2625 90.8265 22.3268C90.8277 22.3911 90.8109 22.4546 90.7779 22.5101C90.7449 22.5657 90.697 22.6112 90.6394 22.6418C90.5818 22.6723 90.5168 22.6867 90.4515 22.6834H88.9704C88.9093 22.6852 88.8487 22.6704 88.7956 22.6405C88.7425 22.6106 88.6988 22.5669 88.6693 22.5141L86.1435 17.5692H83.2736V22.3267C83.2705 22.4203 83.2313 22.5093 83.164 22.5756C83.0967 22.6418 83.0062 22.6804 82.911 22.6834H81.6819C81.5857 22.6834 81.4935 22.6458 81.4255 22.5789C81.3575 22.512 81.3193 22.4213 81.3193 22.3267V9.96443ZM86.6905 15.9612C87.3078 15.9501 87.8961 15.7015 88.3293 15.2687C88.7624 14.8358 89.0058 14.2533 89.0073 13.6459C88.9898 13.052 88.7384 12.4879 88.3061 12.0729C87.8738 11.6578 87.2945 11.4242 86.6905 11.4213H83.3105V15.9612H86.6905Z" fill="#232F77"/>
<path d="M97.3909 9.96445C97.3901 9.9179 97.3987 9.87165 97.4163 9.82841C97.4338 9.78517 97.46 9.74581 97.4931 9.71261C97.5263 9.67941 97.5659 9.65303 97.6095 9.63504C97.6532 9.61704 97.7 9.60778 97.7474 9.60779H105.343C105.439 9.60779 105.532 9.64535 105.6 9.71224C105.668 9.77913 105.706 9.86986 105.706 9.96445V11.0103C105.706 11.1049 105.668 11.1956 105.6 11.2624C105.532 11.3293 105.439 11.3669 105.343 11.3669H99.3452V15.1753H104.415C104.51 15.1784 104.6 15.2172 104.666 15.2836C104.732 15.35 104.77 15.4389 104.772 15.532V16.5778C104.772 16.6244 104.764 16.6706 104.746 16.7139C104.729 16.7571 104.703 16.7965 104.669 16.8297C104.636 16.8629 104.597 16.8892 104.553 16.9072C104.509 16.9252 104.463 16.9345 104.415 16.9345H99.3452V20.9484H105.343C105.439 20.9484 105.532 20.986 105.6 21.0529C105.668 21.1198 105.706 21.2105 105.706 21.3051V22.3267C105.706 22.4213 105.668 22.512 105.6 22.5789C105.532 22.6458 105.439 22.6834 105.343 22.6834H97.7474C97.7 22.6834 97.6532 22.6741 97.6095 22.6561C97.5659 22.6381 97.5263 22.6118 97.4931 22.5786C97.46 22.5454 97.4338 22.506 97.4163 22.4628C97.3987 22.4195 97.3901 22.3733 97.3909 22.3267V9.96445Z" fill="#232F77"/>
<path d="M118.193 9.42631C119.896 9.39849 121.543 10.0203 122.79 11.1613C122.828 11.1936 122.858 11.2335 122.879 11.2784C122.9 11.3232 122.91 11.3719 122.91 11.4212C122.91 11.4705 122.9 11.5192 122.879 11.564C122.858 11.6089 122.828 11.6488 122.79 11.6811L121.954 12.5214C121.825 12.6907 121.653 12.6907 121.481 12.5214C120.57 11.739 119.408 11.2962 118.199 11.2701C116.895 11.2701 115.645 11.7796 114.723 12.6865C113.801 13.5935 113.283 14.8236 113.283 16.1062C113.283 17.3888 113.801 18.6189 114.723 19.5258C115.645 20.4328 116.895 20.9423 118.199 20.9423C119.398 20.9294 120.553 20.5013 121.462 19.7333C121.525 19.6776 121.606 19.6468 121.69 19.6468C121.774 19.6468 121.855 19.6776 121.917 19.7333L122.79 20.5735C122.824 20.6062 122.851 20.6452 122.869 20.6883C122.888 20.7314 122.897 20.7777 122.897 20.8244C122.897 20.8712 122.888 20.9174 122.869 20.9605C122.851 21.0036 122.824 21.0426 122.79 21.0753C121.555 22.2554 119.896 22.9073 118.175 22.8888C116.362 22.8888 114.624 22.1806 113.342 20.9199C112.061 19.6593 111.341 17.9495 111.341 16.1666C111.341 14.3838 112.061 12.674 113.342 11.4133C114.624 10.1527 116.362 9.44444 118.175 9.44444L118.193 9.42631Z" fill="#232F77"/>
<path d="M129.514 9.96443C129.514 9.86983 129.553 9.77911 129.621 9.71222C129.689 9.64533 129.781 9.60777 129.877 9.60777H135.039C135.579 9.60218 136.114 9.70136 136.614 9.8996C137.114 10.0978 137.57 10.3912 137.955 10.763C138.339 11.1348 138.646 11.5776 138.856 12.0661C139.067 12.5546 139.177 13.0791 139.181 13.6096C139.156 14.4462 138.874 15.2557 138.373 15.9321C137.872 16.6085 137.175 17.1201 136.373 17.3999L138.972 22.1454C139.008 22.2001 139.027 22.2635 139.028 22.3284C139.029 22.3933 139.012 22.4572 138.978 22.513C138.944 22.5688 138.895 22.6143 138.837 22.6443C138.778 22.6744 138.712 22.6879 138.647 22.6834H137.19C137.129 22.6839 137.069 22.6685 137.016 22.6388C136.963 22.609 136.919 22.566 136.889 22.5141L134.363 17.5692H131.493V22.3267C131.492 22.4198 131.454 22.5087 131.387 22.5751C131.321 22.6415 131.231 22.6803 131.137 22.6834H129.908C129.812 22.6834 129.719 22.6458 129.651 22.5789C129.583 22.512 129.545 22.4213 129.545 22.3267L129.514 9.96443ZM134.892 15.9612C135.508 15.9486 136.095 15.6993 136.527 15.2666C136.958 14.8339 137.201 14.2522 137.202 13.6459C137.185 13.053 136.934 12.4899 136.503 12.075C136.072 11.6601 135.495 11.4258 134.892 11.4213H131.512V15.9612H134.892Z" fill="#232F77"/>
<path d="M145.79 9.96445C145.792 9.87136 145.829 9.78242 145.896 9.71602C145.962 9.64963 146.052 9.61088 146.146 9.60779H147.419C147.515 9.60779 147.607 9.64535 147.675 9.71224C147.743 9.77913 147.781 9.86986 147.781 9.96445V17.678C147.781 19.546 149.01 21.0029 150.934 21.0029C151.368 21.0114 151.8 20.9309 152.201 20.7666C152.602 20.6024 152.964 20.3578 153.264 20.0486C153.564 19.7394 153.795 19.3722 153.943 18.9703C154.091 18.5685 154.152 18.1407 154.123 17.7143V9.96445C154.123 9.91761 154.133 9.87122 154.151 9.82795C154.169 9.78468 154.196 9.74536 154.23 9.71224C154.263 9.67912 154.303 9.65285 154.347 9.63493C154.391 9.617 154.438 9.60779 154.486 9.60779H155.758C155.853 9.61088 155.942 9.64963 156.009 9.71602C156.075 9.78242 156.113 9.87136 156.114 9.96445V17.8231C156.114 19.1699 155.571 20.4614 154.602 21.4137C153.634 22.366 152.321 22.901 150.952 22.901C149.583 22.901 148.27 22.366 147.302 21.4137C146.334 20.4614 145.79 19.1699 145.79 17.8231V9.96445Z" fill="#232F77"/>
<defs>
<linearGradient id="paint0_linear_5420_98704" x1="0.0356052" y1="14.0307" x2="44.4798" y2="14.0307" gradientUnits="userSpaceOnUse">
<stop stop-color="#1A47FC"/>
<stop offset="0.08" stop-color="#2444F7"/>
<stop offset="0.22" stop-color="#3F3DE9"/>
<stop offset="0.4" stop-color="#6B32D2"/>
<stop offset="0.61" stop-color="#A822B2"/>
<stop offset="0.74" stop-color="#D1179D"/>
<stop offset="1" stop-color="#FF006F"/>
</linearGradient>
</defs>
</svg>
