<svg width="20" height="20" viewBox="0 0 20 20" fill="none" xmlns="http://www.w3.org/2000/svg">
<circle cx="10" cy="10" r="10" fill="#C7C2FF"/>
<mask id="mask0_801_17406" style="mask-type:alpha" maskUnits="userSpaceOnUse" x="0" y="0" width="20" height="20">
<path d="M19.5 10C19.5 15.2467 15.2467 19.5 10 19.5C4.75329 19.5 0.5 15.2467 0.5 10C0.5 4.75329 4.75329 0.5 10 0.5C15.2467 0.5 19.5 4.75329 19.5 10Z" fill="url(#paint0_linear_801_17406)" stroke="#564C70"/>
</mask>
<g mask="url(#mask0_801_17406)">
<path d="M9.9999 16.9792L10.7916 17.8292C10.4499 18.1333 9.94992 18.1833 9.55408 17.95L9.08742 17.675C9.05409 17.6542 8.78323 16.5583 8.74989 16.5458L6.56239 16.9792C4.68739 17.5 4.30823 17.6 4.06239 17.675C3.34156 17.9208 3.33325 17.9042 3.33325 18.6708V20.9125C3.33325 21.4958 3.80409 21.9667 4.38742 21.9667H8.01659H9.34992H14.3541C14.9374 21.9667 15.4083 21.4958 15.4083 20.9125V18.6708C15.4083 17.9083 15.4124 17.925 14.6874 17.675L12.8124 17.1875C12.4624 17.0792 10.2707 16.3542 9.9999 16.5958V16.9792Z" fill="#7C70FF" stroke="#564C70" stroke-linejoin="round"/>
<path d="M10.6457 14.5042H9.52489H8.40405L8.02905 17.0833L9.50822 21.5292L11.0207 17.0833L10.6457 14.5042Z" fill="#F0EAF4" stroke="#564C70" stroke-linecap="round" stroke-linejoin="round"/>
<path d="M12.7457 6.46251C11.3332 5.22501 10.4498 4.62501 8.54149 4.74167C5.16649 4.95001 3.99982 8.84584 5.84149 10.3C5.83316 10.4417 6.15816 13.1542 6.15816 13.1542C6.64566 14.8542 7.95399 15.6458 8.37899 15.8458C8.45399 15.8833 8.54149 15.8875 8.62066 15.8625C9.15816 15.7 11.2998 14.9542 11.8332 13.2625C11.8498 13.7917 11.9457 14.8625 12.9707 15.4125C12.4498 15.0583 11.9873 14.1542 12.6998 12.8792L12.3582 13.0375C14.629 12.1792 14.8915 8.34584 12.7457 6.46251Z" fill="#564C70" stroke="#564C70" stroke-linejoin="round"/>
<path d="M13.8165 7.94167C13.854 7.98334 13.4248 7.43334 13.4748 7.45834C13.4748 7.45834 13.0165 6.19167 13.2082 6.12084C13.2957 6.0875 13.429 7.07917 14.2248 7.14584C14.5332 7.17084 14.8332 7.01667 15.0207 6.77084C15.4873 6.16667 15.6373 5.1625 14.7415 4.375C14.6082 4.25834 14.4582 4.17917 14.2998 4.1375C13.779 3.99584 13.3123 3.7125 13.004 3.27084C12.8623 3.07084 12.6915 2.93334 12.5207 2.8625C11.2748 2.3625 9.88733 3.13334 9.80399 4.35834C9.79149 4.53334 9.89566 4.69584 10.054 4.7625C11.9998 5.60417 12.3623 6.24584 13.8123 7.94167H13.8165Z" fill="#564C70" stroke="#564C70" stroke-linejoin="round"/>
<path d="M11.8458 11.3583C11.8458 11.3583 11.8541 10.0625 11.6208 9.68333C11.0291 8.71249 7.88748 10.1708 6.70415 7.59583C6.70415 7.59583 5.99998 7.68333 5.74581 9.06666C5.49165 10.45 6.15415 13.1583 6.15415 13.1583C6.64165 14.8583 7.94998 15.65 8.37498 15.85C8.44998 15.8875 8.53748 15.8917 8.61665 15.8667C9.15415 15.7042 11.2958 14.9583 11.8291 13.2667C11.8458 13.225 11.8583 13.1792 11.875 13.1333C13.0958 13.4958 13.6958 12.1333 13.4041 10.7708C13.1916 9.76666 11.75 10.0792 11.8375 10.9542L11.8458 11.3583Z" fill="#F0EAF4" stroke="#564C70" stroke-linecap="round" stroke-linejoin="round"/>
</g>
<defs>
<linearGradient id="paint0_linear_801_17406" x1="20" y1="18.45" x2="8.81316e-07" y2="1.15835" gradientUnits="userSpaceOnUse">
<stop stop-color="#948DA5"/>
<stop offset="1" stop-color="#78708D"/>
</linearGradient>
</defs>
</svg>
