<svg width="55" height="55" viewBox="0 0 55 55" fill="none" xmlns="http://www.w3.org/2000/svg">
<path d="M54.687 27.344C54.6873 27.2989 54.6786 27.2543 54.6615 27.2125C54.6445 27.1708 54.6193 27.1329 54.5875 27.1009C54.5558 27.0689 54.518 27.0436 54.4763 27.0262C54.4347 27.0089 54.3901 27 54.345 27H51.268C29.737 27 27.687 24.951 27.687 3.42002V0.342023C27.6873 0.297122 27.6786 0.252612 27.6616 0.211065C27.6446 0.169518 27.6195 0.131755 27.5878 0.0999579C27.5561 0.0681605 27.5184 0.0429582 27.4769 0.0258057C27.4354 0.00865329 27.3909 -0.00010945 27.346 2.33945e-05V2.33945e-05C27.3008 -0.000505853 27.2559 0.00794949 27.2139 0.0248995C27.1719 0.0418495 27.1338 0.0669571 27.1016 0.0987676C27.0694 0.130578 27.0438 0.168459 27.0264 0.210215C27.009 0.251971 27 0.296773 27 0.342023V3.41902C27 24.95 24.951 27 3.42 27H0.343C0.298135 26.9998 0.25366 27.0084 0.212122 27.0253C0.170584 27.0423 0.1328 27.0673 0.100937 27.0988C0.0690728 27.1304 0.0437552 27.168 0.0264345 27.2094C0.00911391 27.2508 0.000130798 27.2952 0 27.34H0C0 27.4307 0.036032 27.5177 0.100169 27.5819C0.164307 27.646 0.251296 27.682 0.342 27.682H3.419C24.95 27.686 27 29.736 27 51.267V54.344C26.9997 54.3889 27.0083 54.4334 27.0253 54.4749C27.0422 54.5164 27.0672 54.5542 27.0988 54.5861C27.1304 54.618 27.168 54.6433 27.2093 54.6606C27.2507 54.6779 27.2951 54.6869 27.34 54.687V54.687C27.4307 54.687 27.5177 54.651 27.5818 54.5869C27.646 54.5227 27.682 54.4357 27.682 54.345V51.267C27.682 29.736 29.732 27.686 51.263 27.686H54.34C54.3849 27.6863 54.4293 27.6777 54.4709 27.6607C54.5124 27.6438 54.5502 27.6188 54.5821 27.5872C54.6139 27.5556 54.6392 27.5181 54.6566 27.4767C54.6739 27.4353 54.6829 27.3909 54.683 27.346L54.687 27.344Z" fill="#99CCFF"/>
</svg>
