<svg id="logo-dc" xmlns="http://www.w3.org/2000/svg" width="218.632" height="79.999" viewBox="0 0 218.632 79.999">
  <g id="Group_156" data-name="Group 156" transform="translate(49.603 44.006)">
    <path id="Path_223" data-name="Path 223" d="M55.153,63.6H53.372V60.164h-.127a6.62,6.62,0,0,1-6.1,3.943c-3.688,0-8.14-2.162-8.14-10.048,0-6.486,3.18-10.175,8.14-10.175,2.925,0,5.087,1.4,5.978,3.816h.127V34.6h1.908ZM53.245,52.024c0-3.18-2.035-6.486-5.978-6.486-4.324,0-6.359,3.688-6.359,8.394,0,5.087,1.908,8.521,6.232,8.521s6.1-3.561,6.1-6.614Z" transform="translate(-39 -34.6)" fill="#404040"/>
    <path id="Path_224" data-name="Path 224" d="M63.894,62.022c-5.851,0-8.394-3.688-8.394-9.92,0-5.851,2.925-10.3,8.267-10.3,5.6,0,7.377,4.579,7.377,8.9v1.526H57.408c.127,5.087,2.035,8.14,6.486,8.14a5.544,5.544,0,0,0,5.215-3.434h1.781C70.253,59.733,67.71,62.022,63.894,62.022ZM69.363,50.7c0-2.8-.89-7.25-5.469-7.25-3.943,0-5.978,3.052-6.359,7.377H69.363Z" transform="translate(-34.514 -32.643)" fill="#404040"/>
    <path id="Path_225" data-name="Path 225" d="M84.064,49.25a6.859,6.859,0,0,0-1.017-4.2c-.636-.89-1.653-1.4-3.434-1.4-4.2,0-6.1,3.434-6.1,6.741V61.587H71.6v-19.2h1.781v3.561h.127A6.667,6.667,0,0,1,79.994,42c4.579,0,5.978,2.671,5.978,6.868V61.587H84.064Z" transform="translate(-30.138 -32.588)" fill="#404040"/>
    <path id="Path_226" data-name="Path 226" d="M91.551,37.7v5.851h5.087v1.526H91.551V58.3c0,2.035.89,3.052,3.18,3.052A10.5,10.5,0,0,0,97.02,61.1v1.653a10.776,10.776,0,0,1-2.671.254c-3.688,0-4.833-2.035-4.833-4.579V45.077H85.7V43.551h1.017c2.289,0,2.8-.382,2.8-3.816V37.7Z" transform="translate(-26.304 -33.757)" fill="#404040"/>
    <path id="Path_227" data-name="Path 227" d="M97.59,47.369c0-2.925,2.544-5.469,6.741-5.469,5.723,0,6.614,3.688,6.614,7v8.776c0,1.908.636,2.671,1.908,2.671v1.526H112.6c-2.417,0-3.434-1.272-3.434-4.07h-.127a7.1,7.1,0,0,1-6.614,4.2c-3.434,0-5.723-1.908-5.723-5.342a5.052,5.052,0,0,1,2.417-4.579c1.781-1.017,5.087-1.4,10.048-1.781V48.768c0-2.671-.763-5.342-4.833-5.342-3.052,0-4.706,1.653-4.833,3.816H97.59Zm11.447,5.6V51.82c-5.215.382-7.758.636-8.9,1.526a3.55,3.55,0,0,0-1.526,3.18c0,2.544,1.781,3.816,4.2,3.816C105.73,60.215,109.037,57.671,109.037,52.965Z" transform="translate(-23.314 -32.615)" fill="#404040"/>
    <path id="Path_228" data-name="Path 228" d="M112.5,34.6h1.908v29H112.5Z" transform="translate(-19.019 -34.6)" fill="#404040"/>
    <path id="Path_229" data-name="Path 229" d="M131.482,47.369c-.254-1.908-1.908-3.816-5.087-3.816-3.943,0-6.359,3.052-6.359,8.394s1.908,8.521,6.232,8.521c3.561,0,4.706-2.162,5.342-4.451h1.908c-.636,4.07-3.434,6.1-7.25,6.1-5.6,0-8.267-3.943-8.267-9.92,0-5.851,3.052-10.3,8.394-10.3,3.18,0,6.614,1.526,7.122,5.469Z" transform="translate(-17.524 -32.615)" fill="#404040"/>
    <path id="Path_230" data-name="Path 230" d="M132.7,51.948c0-5.6,2.925-10.048,8.267-10.048,5.851,0,8.14,4.451,8.14,10.048,0,5.851-2.8,10.048-8.14,10.048C135.117,62,132.7,57.8,132.7,51.948Zm1.908,0c0,5.087,2.035,8.521,6.232,8.521,4.07,0,6.232-3.307,6.232-8.521,0-5.087-1.908-8.521-6.232-8.521C136.9,43.426,134.608,46.86,134.608,51.948Z" transform="translate(-13.527 -32.615)" fill="#404040"/>
    <path id="Path_231" data-name="Path 231" d="M149.4,42.382h1.781v4.324h.127A6.437,6.437,0,0,1,157.286,42h.382v1.781h-.382c-2.671,0-5.851,1.908-5.851,7.122V61.459h-1.908V42.382Z" transform="translate(-8.987 -32.588)" fill="#404040"/>
    <path id="Path_232" data-name="Path 232" d="M159.1,42.409h1.781V45.97h.127a6.867,6.867,0,0,1,6.614-4.07c3.943,0,7.758,2.417,7.758,9.92,0,7-3.816,10.3-8.267,10.3a6.485,6.485,0,0,1-5.978-3.943h-.127V68.609H159.1Zm7.885,18.06c4.07,0,6.232-3.561,6.232-8.649,0-4.579-1.526-8.267-6.1-8.267-4.2,0-6.232,3.307-6.232,6.741V53.6C161.008,56.781,162.788,60.469,166.985,60.469Z" transform="translate(-6.35 -32.615)" fill="#404040"/>
  </g>
  <g id="Layer_2" data-name="Layer 2">
    <g id="Logo">
      <path id="Path_233" data-name="Path 233" d="M54.687,27.344A.342.342,0,0,0,54.345,27H51.268C29.737,27,27.687,24.951,27.687,3.42V.342A.34.34,0,0,0,27.346,0h0A.342.342,0,0,0,27,.342V3.419C27,24.95,24.951,27,3.42,27H.343A.341.341,0,0,0,0,27.34v0H0a.342.342,0,0,0,.342.342H3.419C24.95,27.686,27,29.736,27,51.267v3.077a.341.341,0,0,0,.34.343h0a.342.342,0,0,0,.342-.342V51.267c0-21.531,2.05-23.581,23.581-23.581h3.077a.341.341,0,0,0,.343-.34v0Z" fill="#9cf"/>
    </g>
  </g>
</svg>
