<svg width="180" height="187" viewBox="0 0 180 187" fill="none" xmlns="http://www.w3.org/2000/svg">
<path d="M40.7591 72.074C4.97355 110.109 25.8485 149.873 40.7591 165H161.536C169.587 137.987 141.854 143.389 140.959 99.0873C140.064 54.7854 85.4911 24.5304 40.7591 72.074Z" fill="#F8F8F9"/>
<path d="M139.441 108.621C136.888 107.594 129.229 106.226 129.229 106.226L122 103L115.645 96.3024L112.955 99.7242L107.41 97.5573L104.02 98.6977C103.701 99.7242 99.5531 103.83 97.3194 105.883C94.4475 106.568 91.2565 107.594 88.3846 108.963C87.4273 109.647 86.47 110.674 85.8318 111.701C84.2363 115.122 70.9573 155.078 70 158.5L82.5 159.646L88.2667 144.403C88.8407 145.464 89.2787 146.615 89.422 148C89.6981 150.67 88.8799 154.209 85.8317 159.646C89.5027 159.949 126.5 159.304 126.5 159.304L134.483 136L139.441 159.304L147.856 159.5C151.061 159.575 153.505 156.665 152.849 153.527C151.086 145.082 147.825 129.905 145.386 121.108C142.514 111.527 141.993 109.305 139.441 108.621Z" fill="#A299FF"/>
<path d="M89.422 123.5C84.4794 135.892 85.8166 139.877 88.2667 144.403M88.2667 144.403C88.8407 145.464 89.2787 146.615 89.422 148C89.6981 150.67 88.8799 154.209 85.8317 159.646C89.5027 159.949 126.5 159.304 126.5 159.304L134.483 136L132.061 124.611L133.906 133.284L139.441 159.304L147.856 159.5C151.061 159.575 153.505 156.665 152.849 153.527C151.086 145.082 147.825 129.905 145.386 121.108C142.514 111.527 141.993 109.305 139.441 108.621C136.888 107.594 129.229 106.226 129.229 106.226L122 103L115.645 96.3024L112.955 99.7242L107.41 97.5573L104.02 98.6977C103.701 99.7242 99.5531 103.83 97.3194 105.883C94.4475 106.568 91.2565 107.594 88.3846 108.963C87.4273 109.647 86.47 110.674 85.8318 111.701C84.2363 115.122 70.9573 155.078 70 158.5L82.5 159.646L88.2667 144.403Z" stroke="#564C70" stroke-linecap="round" stroke-linejoin="round"/>
<path d="M108.985 159.304V147.766L151.29 146.484L152.321 151.637C153.114 155.603 150.081 159.304 146.036 159.304H108.985Z" fill="#A299FF"/>
<path d="M151.29 145.843L152.405 151.695C153.5 156.5 152.405 159.304 147.108 159.304H108.985V147.766L141.676 146.775" stroke="#564C70" stroke-linecap="round" stroke-linejoin="round"/>
<path d="M124.239 115.48L122 100.5L116.686 95.813L113.319 99.7815L107.878 97.2809L103.764 98.4165C103.764 98.4165 103.764 98.7578 103.422 98.7578C98.986 104.218 92.8433 107.289 90.7958 113.432L92.5021 111.726C93.8671 110.702 95.9147 110.702 96.9384 112.067L99.6685 114.797L96.9384 141.757C96.9384 141.757 111.271 114.114 116.39 111.043C119.12 109.678 123.215 115.138 124.239 115.48Z" fill="#F1F0F5" stroke="#564C70" stroke-linecap="round" stroke-linejoin="round"/>
<path d="M105.923 92.3879C105.923 92.3879 104.789 103.196 102.4 107.632C100.011 111.728 102.4 121.283 102.741 122.648C107.178 117.529 112.297 109.339 116.392 106.267C120.146 103.196 115.709 99.7277 117.177 91.4093C115.129 92.7743 115.162 91.7054 112.773 92.3879H105.923Z" fill="#F0EAF4"/>
<path d="M102.741 122.648C102.4 121.283 100.011 111.728 102.4 107.632C104.789 103.196 105.923 92.3879 105.923 92.3879H112.773C115.162 91.7054 115.129 92.7743 117.177 91.4093C115.709 99.7277 120.146 103.196 116.392 106.267C112.297 109.339 107.178 117.529 102.741 122.648ZM102.741 122.648L98 131" stroke="#564C70" stroke-linecap="round" stroke-linejoin="round"/>
<path d="M130.159 76.786C130.045 76.3912 126.533 71.5809 126.422 71.1852C126.416 71.167 126.41 71.1406 126.408 71.1218C125.904 66.7297 115.066 53.0736 108.677 52.4897C106.885 52.2131 99.4269 52.6219 95.2706 57.4458C89.5589 63.7903 93.3734 68.2112 93.2778 76.67C92.8173 72.0503 91.0836 73.5618 91.5441 78.1815C91.7037 79.8825 92.5387 85.9786 94.9757 84.5463C97.0043 93.0242 104.131 97.1526 105.967 98.0902C106.249 98.234 106.56 98.2679 106.867 98.1917C109.246 97.6009 120.057 94.5017 123.043 86.3234C124.144 87.3004 128.81 82.4024 129.451 81.0782C129.463 81.0533 129.475 81.0311 129.49 81.0077C130.409 79.5501 130.502 77.974 130.159 76.786Z" fill="#F0EAF4" stroke="#564C70"/>
<path d="M130.231 95.8037C127.434 93.7212 125.444 88.3151 130.396 81.1929C134.065 74.0563 134.988 60.4795 128.911 53.7453C122.835 47.0112 118.25 44.3958 109.019 44.5478C92.6415 44.8175 86.4143 58.1722 91.5668 75.8831C92.3706 72.8158 93.3003 74.3645 93.2829 75.9025C93.6132 69.8774 91.0479 61.7069 98.8642 59.0117C99.7805 65.6044 116.564 69.7052 121.9 71.2253C127.235 72.7455 124.756 81.1292 124.756 81.1292C125.444 79.7924 126.62 74.3589 128.667 75.3914C129.383 75.7529 129.652 77.5766 128.601 81.1726C126.49 85.8757 124.703 85.8555 124.703 85.8555C124.674 88.4188 125.392 92.929 130.231 95.8037Z" fill="#564C70" stroke="#564C70" stroke-linejoin="round"/>
<path d="M129.203 54.8888C134.936 57.5774 141.039 40.893 126.816 38.4172C119.1 29.7653 107.186 36.0536 108.956 44.6223C120.018 48.22 120.783 46.835 129.203 54.8888Z" fill="#564C70" stroke="#564C70"/>
<path d="M4.79753 159.358H174.677C176.576 159.358 178 161.21 178 163.679C178 166.148 176.576 168 174.677 168H4.79753C2.89865 168 1.47449 166.148 1.47449 163.679C1.47449 161.518 2.89865 159.358 4.79753 159.358Z" fill="#F0EAF4" stroke="#564C70" stroke-linecap="round" stroke-linejoin="round"/>
<path d="M166.226 159.898H142.595C141.984 159.898 141.411 159.603 141.057 159.106C140.163 157.855 141.057 156.117 142.595 156.117H166.226C167.91 156.117 168.754 158.153 167.563 159.344C167.208 159.699 166.727 159.898 166.226 159.898Z" fill="#F1F0F5" stroke="#564C70" stroke-linecap="round" stroke-linejoin="round"/>
<path fill-rule="evenodd" clip-rule="evenodd" d="M163.306 147.475H161.227V146.394H163.306C165.84 146.394 166.979 149.569 165.023 151.18L160.49 154.913L159.803 154.08L164.337 150.346C165.51 149.379 164.827 147.475 163.306 147.475Z" fill="#564C70"/>
<path d="M147.183 156.117L143.942 143.153H163.387L160.609 156.117H147.183Z" fill="url(#paint0_linear_4850_90809)" stroke="#564C70" stroke-linecap="round" stroke-linejoin="round"/>
<path d="M152.073 138.292C153.693 132.891 153.045 128.785 150.453 125.329C147.212 121.007 146.375 115.515 150.453 113.985M155.854 138.292C156.934 135.951 157.15 129.866 153.693 124.248" stroke="#564C70"/>
<path d="M99.8309 146.233L109 149.342V159H85.5665C84.1491 159 83 157.675 83 156.041C83 154.921 83.5492 153.896 84.4187 153.395L96.1962 146.606C97.3233 145.957 98.622 145.824 99.8309 146.233Z" fill="#F1F0F5" stroke="#564C70" stroke-linecap="round" stroke-linejoin="round"/>
<path d="M103.456 159.93C101.799 159.939 96.8558 159.939 92.0388 159.936C89.28 159.934 86.5661 159.932 84.5418 159.93L82.1034 159.927L81.4232 159.926L81.2444 159.926L81.1986 159.926L81.187 159.926L81.1841 159.926L81.1833 159.926C81.1832 159.926 81.1831 159.926 81.1824 160.426L81.1831 159.926H81.1824H51.5368L51.5368 155.536H103.322L103.456 159.93Z" fill="url(#paint1_linear_4850_90809)" stroke="#564C70" stroke-linecap="round" stroke-linejoin="round"/>
<mask id="path-19-inside-1_4850_90809" fill="white">
<path d="M50.6683 160.506H80.659C82.5482 160.27 82.6107 158.351 82.6107 157.2L78.8323 116.583C78.5962 114.93 78.2975 113.985 76.4084 113.985H6.74487L10.9955 160.506H51.0368"/>
</mask>
<path d="M50.6683 160.506H80.659C82.5482 160.27 82.6107 158.351 82.6107 157.2L78.8323 116.583C78.5962 114.93 78.2975 113.985 76.4084 113.985H6.74487L10.9955 160.506H51.0368" fill="url(#paint2_linear_4850_90809)"/>
<path d="M50.6683 159.506C50.116 159.506 49.6683 159.954 49.6683 160.506C49.6683 161.059 50.116 161.506 50.6683 161.506V159.506ZM80.659 160.506V161.506C80.7005 161.506 80.7419 161.504 80.7831 161.499L80.659 160.506ZM82.6107 157.2H83.6107C83.6107 157.169 83.6092 157.139 83.6064 157.108L82.6107 157.2ZM78.8323 116.583L79.828 116.49C79.8265 116.474 79.8246 116.458 79.8223 116.442L78.8323 116.583ZM6.74487 113.985V112.985C6.46383 112.985 6.19576 113.104 6.0063 113.311C5.81683 113.519 5.72345 113.796 5.74902 114.076L6.74487 113.985ZM10.9955 160.506L9.99968 160.597C10.0467 161.112 10.4785 161.506 10.9955 161.506V160.506ZM51.0368 161.506C51.5891 161.506 52.0368 161.059 52.0368 160.506C52.0368 159.954 51.5891 159.506 51.0368 159.506V161.506ZM50.6683 161.506H80.659V159.506H50.6683V161.506ZM80.7831 161.499C81.4291 161.418 81.9747 161.183 82.4092 160.813C82.8371 160.449 83.1062 159.997 83.2764 159.556C83.6035 158.707 83.6107 157.763 83.6107 157.2H81.6107C81.6107 157.788 81.5866 158.379 81.4102 158.837C81.3286 159.048 81.2278 159.193 81.1127 159.29C81.0042 159.383 80.8336 159.477 80.535 159.514L80.7831 161.499ZM83.6064 157.108L79.828 116.49L77.8366 116.676L81.615 157.293L83.6064 157.108ZM79.8223 116.442C79.7094 115.652 79.5572 114.737 79.0331 114.055C78.4291 113.269 77.5168 112.985 76.4084 112.985V114.985C77.1891 114.985 77.3707 115.174 77.4473 115.274C77.6038 115.477 77.719 115.861 77.8423 116.724L79.8223 116.442ZM76.4084 112.985H6.74487V114.985H76.4084V112.985ZM10.9955 161.506H51.0368V159.506H10.9955V161.506ZM5.74902 114.076L9.99968 160.597L11.9914 160.415L7.74072 113.894L5.74902 114.076Z" fill="#564C70" mask="url(#path-19-inside-1_4850_90809)"/>
<path d="M76.1065 114.333L80.1697 160.044" stroke="#564C70" stroke-linecap="round" stroke-linejoin="round"/>
<path d="M69.9608 62.7304C69.9608 72.2465 62.2465 79.9608 52.7304 79.9608C43.2143 79.9608 35.5 72.2465 35.5 62.7304C35.5 53.2143 43.2143 45.5 52.7304 45.5C62.2465 45.5 69.9608 53.2143 69.9608 62.7304Z" fill="#C7C2FF" stroke="#695CA8"/>
<path d="M65.8375 62.7306C65.8375 69.9694 59.9693 75.8377 52.7305 75.8377C45.4916 75.8377 39.6234 69.9694 39.6234 62.7306C39.6234 55.4918 45.4916 49.6235 52.7305 49.6235C59.9693 49.6235 65.8375 55.4918 65.8375 62.7306Z" fill="url(#paint3_linear_4850_90809)" stroke="#695CA8"/>
<path d="M53.7051 53.1824C53.7051 52.7927 54.0948 52.5979 54.4845 52.5979C54.8742 52.5979 55.069 52.9876 55.069 53.1824L53.5103 62.7296L58.5761 67.7954C58.771 67.9902 58.771 68.3799 58.5761 68.5748C58.3813 68.7696 57.9916 68.7696 57.7968 68.5748L52.1464 62.9244L53.7051 53.1824Z" fill="#F0EAF4" stroke="#695CA8"/>
<path d="M52.9237 64.6784C53.7846 64.6784 54.4824 63.9805 54.4824 63.1196C54.4824 62.2588 53.7846 61.5609 52.9237 61.5609C52.0629 61.5609 51.365 62.2588 51.365 63.1196C51.365 63.9805 52.0629 64.6784 52.9237 64.6784Z" fill="#F0EAF4" stroke="#695CA8"/>
<defs>
<linearGradient id="paint0_linear_4850_90809" x1="153.411" y1="143.214" x2="153.411" y2="156.126" gradientUnits="userSpaceOnUse">
<stop stop-color="#F0EAF4"/>
<stop offset="1" stop-color="white"/>
</linearGradient>
<linearGradient id="paint1_linear_4850_90809" x1="76.8135" y1="155.062" x2="76.8135" y2="160.442" gradientUnits="userSpaceOnUse">
<stop stop-color="#F0EAF4"/>
<stop offset="1" stop-color="white"/>
</linearGradient>
<linearGradient id="paint2_linear_4850_90809" x1="43.6882" y1="114.203" x2="43.6882" y2="160.539" gradientUnits="userSpaceOnUse">
<stop stop-color="#F0EAF4"/>
<stop offset="1" stop-color="white"/>
</linearGradient>
<linearGradient id="paint3_linear_4850_90809" x1="52.726" y1="49.2508" x2="52.726" y2="76.3569" gradientUnits="userSpaceOnUse">
<stop stop-color="#F0EAF4"/>
<stop offset="1" stop-color="white"/>
</linearGradient>
</defs>
</svg>
