<svg width="259" height="170" viewBox="0 0 259 170" fill="none" xmlns="http://www.w3.org/2000/svg">
<path d="M35.5607 35.7159C-23.4099 87.4043 10.9896 141.442 35.5607 162H234.587C247.855 125.289 202.153 132.632 200.679 72.4264C199.204 12.2212 109.274 -28.8946 35.5607 35.7159Z" fill="#EAE8F1"/>
<path d="M222.186 75.1331L223 80.834L215.5 89.834L212.638 88.9754C211.369 88.5947 210.5 87.4267 210.5 86.1019V78.334L202 75.834L206.5 67.334L210.5 70.334L211.664 68.9368C212.467 67.9733 213.785 67.611 214.967 68.0284L216.929 68.7205C219.738 69.7122 221.764 72.1833 222.186 75.1331Z" fill="#F0EAF4" stroke="#564C70"/>
<path d="M216 89.334C216 89.334 216 81.834 223 80.834C223 80.834 239 108.628 243.5 119.481C248 130.334 235.5 130.334 235.5 130.334L216 128.834L214.552 131.73C210.243 140.348 208 149.85 208 159.484V159.484C208 159.484 157.239 159.834 153 159.484C159.482 143.266 155.5 119.624 171.5 114.834C187.5 110.044 181.484 110.883 181.81 109.834V106.326L190 100.834L194.5 111.334L200.719 110.712C206.524 110.132 212.387 110.614 218.019 112.136L228 114.834L216 89.334Z" fill="#A299FF"/>
<path d="M216 128.834L235.5 130.334C235.5 130.334 248 130.334 243.5 119.481C239 108.628 223 80.834 223 80.834C216 81.834 216 89.334 216 89.334L228 114.834M216 128.834L211.5 127.834M216 128.834L214.552 131.73C210.243 140.348 208 149.85 208 159.484V159.484C208 159.484 157.239 159.834 153 159.484C159.482 143.266 155.5 119.624 171.5 114.834C187.5 110.044 181.484 110.883 181.81 109.834V106.326L190 100.834L194.5 111.334L200.719 110.712C206.524 110.132 212.387 110.614 218.019 112.136L228 114.834M228 114.834L230 119.481" stroke="#564C70"/>
<path d="M202.174 122.43L202.871 106.389L194.455 102.334L191.015 106.389L185.455 103.834L181.251 104.994C181.251 104.994 181.251 105.343 180.902 105.343C176.369 110.922 170.092 114.061 168 120.338L169.744 118.594C171.138 117.548 173.231 117.548 174.277 118.943L177.066 121.732L174.277 149.28C174.277 149.28 188.923 121.035 194.153 117.897C196.943 116.502 201.127 122.081 202.174 122.43Z" fill="#F1F0F5" stroke="#564C70"/>
<path d="M183.455 98.834C183.455 98.834 182.297 109.878 179.856 114.411C177.415 118.596 179.856 128.36 180.204 129.755C184.738 124.524 189.968 116.155 194.153 113.016C197.989 109.878 193.455 106.334 194.955 97.834C192.863 99.2288 192.896 98.1366 190.455 98.834H183.455Z" fill="#F0EAF4"/>
<path d="M180.204 129.755C179.856 128.36 177.415 118.596 179.856 114.411C182.297 109.878 183.455 98.834 183.455 98.834H190.455C192.896 98.1366 192.863 99.2288 194.955 97.834C193.455 106.334 197.989 109.878 194.153 113.016C189.968 116.155 184.738 124.524 180.204 129.755ZM180.204 129.755L175.455 138.334" stroke="#564C70"/>
<path d="M209.987 89.1402C209.914 88.7241 206.862 83.4193 206.792 83.0028V83.0028C206.789 82.9836 206.786 82.956 206.786 82.9365C206.76 78.3937 197.209 63.2372 190.747 61.9295C188.947 61.4475 181.283 61.0349 176.5 65.5C169.959 71.3452 173.364 76.2859 172.325 84.9162C172.369 80.1458 170.429 81.4968 170.385 86.2672C170.359 88.0226 170.534 94.3428 173.182 93.151C174.287 101.852 180.85 106.837 182.786 108.132C183.132 108.364 183.543 108.452 183.955 108.394C186.719 108.002 197.767 105.967 201.656 98.0907C202.672 99.2113 207.983 94.7272 208.786 93.4459C208.801 93.4218 208.816 93.4005 208.833 93.3782C209.935 91.9916 210.206 90.3919 209.987 89.1402Z" fill="#F0EAF4" stroke="#564C70"/>
<path d="M207.946 108.576C205.321 106.137 203.89 100.393 209.741 93.6687C214.284 86.7869 216.738 73.0206 211.28 65.4651C205.822 57.9096 201.43 54.7274 191.984 53.8552C175.223 52.3076 167.376 65.2566 170.667 83.9222C171.83 80.8784 172.607 82.5639 172.418 84.1331C173.426 78.0151 171.715 69.3832 180 67.5C180.202 74.3366 196.891 80.394 202.172 82.5408C207.453 84.6876 203.988 92.9758 203.988 92.9758C204.838 91.6868 206.645 86.2672 208.621 87.5498C209.312 87.9989 209.384 89.8917 207.91 93.4482C205.23 98.0175 203.407 97.7979 203.407 97.7979C203.092 100.413 203.323 105.1 207.946 108.576Z" fill="#564C70" stroke="#564C70" stroke-linejoin="round"/>
<path d="M211.45 66.6654C217.006 70.05 225.099 53.686 210.845 49.5735C203.926 39.8765 191.055 44.9739 191.91 53.9241C202.809 58.8306 203.745 57.5009 211.45 66.6654Z" fill="#564C70" stroke="#564C70"/>
<path d="M5.88194 159.07H243.702C246.492 159.07 248.584 161.162 248.584 163.952C248.584 166.742 246.492 168.834 243.702 168.834H5.88194C3.09226 168.834 1 166.742 1 163.952C1 161.511 3.09226 159.07 5.88194 159.07Z" fill="#F0EAF4" stroke="#564C70"/>
<path d="M167.178 128.834C167.511 131.667 166.278 135.734 164.678 139.334C163.078 142.934 164.68 150.167 165.68 152.334L167.178 158.834" stroke="#564C70"/>
<path d="M232.36 7.01054L232.361 7.00942C234.343 5.3283 236.38 4.16929 238.609 3.6057C240.836 3.04263 243.286 3.06574 246.108 3.79619C249.023 4.55081 251.779 6.49053 253.609 8.99315C255.438 11.4942 256.309 14.5096 255.554 17.427C255.044 19.3962 254.13 20.7187 253.046 21.6544C251.953 22.5967 250.665 23.1669 249.377 23.5906C248.749 23.7972 248.13 23.9666 247.534 24.1294L247.488 24.142C246.884 24.307 246.298 24.4681 245.779 24.6524C244.777 25.0089 243.822 25.5198 243.554 26.5546L243.462 26.9106C243.278 27.6207 242.587 27.9913 241.895 27.8121L236.621 26.4468C235.929 26.2676 235.504 25.6081 235.688 24.8981L235.854 24.2571C236.902 20.2068 240.372 19.33 243.369 18.5725C243.4 18.5647 243.431 18.5569 243.462 18.5491L243.462 18.5491L243.466 18.548C244.688 18.2281 245.764 17.9453 246.581 17.521C247.432 17.0795 248.048 16.4621 248.304 15.4742C248.64 14.1756 248.064 12.9553 247.189 12.0314C246.312 11.1043 245.069 10.397 243.863 10.0848C242.371 9.69849 241.141 9.74534 239.965 10.1369C238.809 10.5215 237.734 11.2303 236.542 12.1024L236.541 12.1036C235.989 12.5104 235.18 12.4012 234.778 11.871L234.778 11.871L234.771 11.8631L232.273 8.70873L232.259 8.69159L232.244 8.67571C231.793 8.19811 231.87 7.42277 232.36 7.01054ZM232.77 33.4891C233.398 31.0614 235.929 29.5802 238.49 30.2433C240.975 30.8866 242.474 33.4061 241.845 35.8383C241.215 38.2706 238.682 39.7461 236.197 39.1028C233.635 38.4397 232.142 35.9169 232.77 33.4891Z" fill="url(#paint0_linear_1734_27632)" stroke="#564C70"/>
<path d="M228 54.334L252.5 42.334" stroke="#564C70"/>
<mask id="path-15-inside-1_1734_27632" fill="white">
<path d="M86.4362 146.517H130.722C133.512 146.169 133.604 143.334 133.604 141.635L128.025 81.6572C127.676 79.2162 127.235 77.8214 124.446 77.8214H21.5762L27.853 146.517H72.4878"/>
</mask>
<path d="M86.4362 146.517H130.722C133.512 146.169 133.604 143.334 133.604 141.635L128.025 81.6572C127.676 79.2162 127.235 77.8214 124.446 77.8214H21.5762L27.853 146.517H72.4878" fill="url(#paint1_linear_1734_27632)"/>
<path d="M130.722 146.517V147.517H130.785L130.846 147.51L130.722 146.517ZM133.604 141.635H134.604V141.589L134.6 141.543L133.604 141.635ZM128.025 81.6572L129.021 81.5646L129.018 81.5401L129.015 81.5158L128.025 81.6572ZM21.5762 77.8214V76.8214H20.4806L20.5803 77.9124L21.5762 77.8214ZM27.853 146.517L26.8571 146.608L26.9402 147.517H27.853V146.517ZM86.4362 147.517H130.722V145.517H86.4362V147.517ZM130.846 147.51C131.718 147.401 132.434 147.088 132.998 146.608C133.555 146.133 133.912 145.539 134.143 144.942C134.59 143.782 134.604 142.472 134.604 141.635H132.604C132.604 142.497 132.573 143.454 132.276 144.223C132.135 144.59 131.946 144.877 131.701 145.085C131.463 145.287 131.122 145.459 130.598 145.525L130.846 147.51ZM134.6 141.543L129.021 81.5646L127.029 81.7498L132.609 141.728L134.6 141.543ZM129.015 81.5158C128.846 80.332 128.63 79.1076 127.943 78.2145C127.177 77.2177 126.004 76.8214 124.446 76.8214V78.8214C125.677 78.8214 126.119 79.1225 126.358 79.4333C126.676 79.848 126.855 80.5415 127.035 81.7986L129.015 81.5158ZM124.446 76.8214H21.5762V78.8214H124.446V76.8214ZM27.853 147.517H72.4878V145.517H27.853V147.517ZM20.5803 77.9124L26.8571 146.608L28.8488 146.426L22.572 77.7304L20.5803 77.9124Z" fill="#564C70" mask="url(#path-15-inside-1_1734_27632)"/>
<path d="M64.3027 119H85.3027L87.0553 154.5L103.803 157.5V159.5H57L64.3027 119Z" fill="url(#paint2_linear_1734_27632)"/>
<path d="M87.0553 154.5L85.3027 119H64.3027L57 159.5H103.803V157.5L87.0553 154.5ZM87.0553 154.5L87.3027 156.5" stroke="#564C70"/>
<path d="M124 78.334L130 145.834" stroke="#564C70"/>
<path d="M52.5 28.5C52.5 40.098 43.098 49.5 31.5 49.5C19.902 49.5 10.5 40.098 10.5 28.5C10.5 16.902 19.902 7.5 31.5 7.5C43.098 7.5 52.5 16.902 52.5 28.5Z" fill="#C7C2FF" stroke="#695CA8"/>
<path d="M47.5 28.5C47.5 37.3366 40.3366 44.5 31.5 44.5C22.6634 44.5 15.5 37.3366 15.5 28.5C15.5 19.6634 22.6634 12.5 31.5 12.5C40.3366 12.5 47.5 19.6634 47.5 28.5Z" fill="url(#paint3_linear_1734_27632)" stroke="#695CA8"/>
<path d="M32.6821 16.922C32.6821 16.4495 33.1546 16.2133 33.6272 16.2133C34.0997 16.2133 34.3359 16.6858 34.3359 16.922L32.4458 28.499L38.5887 34.6418C38.825 34.8781 38.825 35.3506 38.5887 35.5869C38.3524 35.8232 37.8799 35.8232 37.6436 35.5869L30.792 28.7352L32.6821 16.922Z" fill="#F0EAF4" stroke="#695CA8"/>
<path d="M31.7339 30.862C32.7777 30.862 33.624 30.0158 33.624 28.9719C33.624 27.928 32.7777 27.0818 31.7339 27.0818C30.69 27.0818 29.8438 27.928 29.8438 28.9719C29.8438 30.0158 30.69 30.862 31.7339 30.862Z" fill="#F0EAF4" stroke="#695CA8"/>
<defs>
<linearGradient id="paint0_linear_1734_27632" x1="246.109" y1="3.46205" x2="236.708" y2="39.7791" gradientUnits="userSpaceOnUse">
<stop stop-color="#F0EAF4"/>
<stop offset="1" stop-color="white"/>
</linearGradient>
<linearGradient id="paint1_linear_1734_27632" x1="76.129" y1="78.1426" x2="76.129" y2="146.566" gradientUnits="userSpaceOnUse">
<stop stop-color="#F0EAF4"/>
<stop offset="1" stop-color="white"/>
</linearGradient>
<linearGradient id="paint2_linear_1734_27632" x1="76.8723" y1="134.094" x2="76.8723" y2="154.014" gradientUnits="userSpaceOnUse">
<stop stop-color="#F0EAF4"/>
<stop offset="1" stop-color="white"/>
</linearGradient>
<linearGradient id="paint3_linear_1734_27632" x1="31.4946" y1="12.1543" x2="31.4946" y2="45.0233" gradientUnits="userSpaceOnUse">
<stop stop-color="#F0EAF4"/>
<stop offset="1" stop-color="white"/>
</linearGradient>
</defs>
</svg>
