<svg width="55" height="72" viewBox="0 0 55 72" fill="none" xmlns="http://www.w3.org/2000/svg">
<path d="M11.1043 21.7857L2.46094 8C2.46094 8 11.3902 2.05662 11.852 1.73927C12.3139 1.42193 12.5755 1.22527 13.013 1.08305C13.7166 0.907722 14.5567 1.0051 15.4608 1.42193L49.0621 16.9123C51.5699 18.0684 53.6212 21.2441 53.6439 24.0055L53.9474 61.0042C53.9603 62.5823 53.3079 63.6835 52.2783 64.1217L41.9609 71L32.6652 56.174L15.8464 48.4203C13.3386 47.2643 11.2873 44.0886 11.2646 41.3272L11.1043 21.7857Z" fill="#7C70FF" stroke="#564C70" stroke-linejoin="round"/>
<path d="M1.00019 10.9994C0.977537 8.23803 2.99212 6.93673 5.49989 8.09283L39.1012 23.5832C41.609 24.7393 43.6603 27.915 43.6829 30.6764L43.9864 67.6751C44.0091 70.4365 41.9945 71.7378 39.4867 70.5817L5.88543 55.0912C3.37766 53.9352 1.32635 50.7594 1.3037 47.9981L1.00019 10.9994Z" fill="#C7C2FF"/>
<path d="M31.0515 45.4244C30.4608 44.9528 29.8746 45.0313 29.6986 45.5977C28.7778 48.9089 25.6273 50.0465 22.0929 48.4172C19.0569 47.0176 16.3226 43.8643 14.9394 40.3377L19.516 42.4475C20.105 42.7191 20.5994 42.4489 20.5936 41.7489C20.5883 41.0989 20.1307 40.34 19.4963 40.0476L12.2463 36.7053C11.6572 36.4337 11.1633 36.7539 11.1686 37.4039L11.2342 45.4036C11.24 46.1036 11.7425 46.8334 12.3316 47.1049C12.9659 47.3974 13.415 47.1063 13.4092 46.4063L13.3674 41.3065C15.2074 45.492 18.5328 49.1668 22.1126 50.8171C26.5985 52.8851 30.559 51.4235 31.7888 47.2586C31.9647 46.6922 31.6422 45.896 31.0515 45.4244ZM31.7551 32.1509C31.1207 31.8584 30.6721 32.1995 30.6775 32.8495L30.7197 37.9993C28.8797 33.8138 25.5538 30.089 21.9741 28.4387C17.4882 26.3707 13.4828 27.8614 12.253 32.0263C12.122 32.5636 12.4449 33.4098 13.0352 33.8314C13.6259 34.3029 14.2121 34.2245 14.3427 33.6372C15.3093 30.3969 18.4594 29.2093 21.9938 30.8386C24.9845 32.2173 27.7192 35.4206 29.102 38.8972L24.5707 36.8083C23.9363 36.5158 23.4877 36.8569 23.493 37.5069C23.4988 38.2069 23.956 38.9158 24.5904 39.2082L31.8404 42.5505C32.4295 42.8221 32.9238 42.5519 32.9181 41.8519L32.8525 33.8522C32.8471 33.2022 32.3442 32.4224 31.7551 32.1509Z" fill="#564C70"/>
<path d="M1.00019 10.9994C0.977537 8.23803 2.99212 6.93673 5.49989 8.09283L39.1012 23.5832C41.609 24.7393 43.6603 27.915 43.6829 30.6764L43.9864 67.6751C44.0091 70.4365 41.9945 71.7378 39.4867 70.5817L5.88543 55.0912C3.37766 53.9352 1.32635 50.7594 1.3037 47.9981L1.00019 10.9994Z" stroke="#564C70" stroke-linejoin="round"/>
<path d="M31.0515 45.4244C30.4608 44.9528 29.8746 45.0313 29.6986 45.5977C28.7778 48.9089 25.6273 50.0465 22.0929 48.4172C19.0569 47.0176 16.3226 43.8643 14.9394 40.3377L19.516 42.4475C20.105 42.7191 20.5994 42.4489 20.5936 41.7489C20.5883 41.0989 20.1307 40.34 19.4963 40.0476L12.2463 36.7053C11.6572 36.4337 11.1633 36.7539 11.1686 37.4039L11.2342 45.4036C11.24 46.1036 11.7425 46.8334 12.3316 47.1049C12.9659 47.3974 13.415 47.1063 13.4092 46.4063L13.3674 41.3065C15.2074 45.492 18.5328 49.1668 22.1126 50.8171C26.5985 52.8851 30.559 51.4235 31.7888 47.2586C31.9647 46.6922 31.6422 45.896 31.0515 45.4244ZM31.7551 32.1509C31.1207 31.8584 30.6721 32.1995 30.6775 32.8495L30.7197 37.9993C28.8797 33.8138 25.5538 30.089 21.9741 28.4387C17.4882 26.3707 13.4828 27.8614 12.253 32.0263C12.122 32.5636 12.4449 33.4098 13.0352 33.8314C13.6259 34.3029 14.2121 34.2245 14.3427 33.6372C15.3093 30.3969 18.4594 29.2093 21.9938 30.8386C24.9845 32.2173 27.7192 35.4206 29.102 38.8972L24.5707 36.8083C23.9363 36.5158 23.4877 36.8569 23.493 37.5069C23.4988 38.2069 23.956 38.9158 24.5904 39.2082L31.8404 42.5505C32.4295 42.8221 32.9238 42.5519 32.9181 41.8519L32.8525 33.8522C32.8471 33.2022 32.3442 32.4224 31.7551 32.1509Z" stroke="#564C70" stroke-linejoin="round"/>
<path d="M46.4609 20L12.9609 2L5.96094 7L43.9609 21.5L46.4609 20Z" fill="#978DFE"/>
<path d="M52.9609 62.5V26L46.9609 30L49.9609 64.5L52.9609 62.5Z" fill="#6D60FA"/>
</svg>
