<?xml version="1.0" standalone="no"?>
<!DOCTYPE svg PUBLIC "-//W3C//DTD SVG 20010904//EN"
 "http://www.w3.org/TR/2001/REC-SVG-20010904/DTD/svg10.dtd">
<svg version="1.0" xmlns="http://www.w3.org/2000/svg"
 width="16.000000pt" height="16.000000pt" viewBox="0 0 16.000000 16.000000"
 preserveAspectRatio="xMidYMid meet">
<metadata>
Created by potrace 1.11, written by Peter Selinger 2001-2013
</metadata>
<g transform="translate(0.000000,16.000000) scale(0.006154,-0.006154)"
fill="#000000" stroke="none">
<path d="M0 1300 l0 -1300 1300 0 1300 0 0 1300 0 1300 -1300 0 -1300 0 0
-1300z m1125 865 c231 -59 396 -256 421 -501 6 -59 5 -67 -16 -89 -30 -32 -54
-32 -85 0 -19 18 -25 35 -25 68 0 25 -9 74 -20 109 -37 120 -113 207 -229 262
-63 29 -72 31 -187 31 -118 0 -121 0 -195 -37 -137 -68 -219 -186 -239 -343
-11 -90 -13 -1005 -2 -1004 4 0 95 113 202 250 107 138 205 255 218 260 31 12
29 13 226 -140 93 -73 173 -130 177 -129 4 2 99 127 210 278 111 151 207 278
213 282 36 24 96 -6 96 -47 0 -24 -12 -42 -274 -400 -177 -241 -206 -275 -235
-275 -10 0 -101 64 -201 141 -102 80 -185 138 -190 133 -4 -5 -88 -110 -185
-234 l-177 -225 523 -3 c455 -2 531 0 579 14 156 45 262 156 304 318 8 30 18
102 22 161 6 91 10 108 28 120 29 21 49 19 76 -10 22 -24 23 -29 17 -137 -4
-62 -14 -140 -23 -173 -41 -155 -150 -292 -283 -360 -128 -64 -136 -65 -828
-65 l-623 0 0 628 c0 593 1 633 20 706 52 204 202 358 400 410 73 19 212 20
285 1z"/>
</g>
</svg>
