<svg width="150" height="124" viewBox="0 0 150 124" fill="none" xmlns="http://www.w3.org/2000/svg">
<path d="M93.7589 68.2761C87.6465 68.2761 84.9064 71.6484 75 71.6484C64.8828 71.6484 62.1427 68.2761 56.0303 68.2761C40.433 68.2761 27.7865 81.1333 27.7865 96.7306V105.372C27.7865 111.063 32.2127 115.49 37.9037 115.49H112.096C117.576 115.49 122.214 111.063 122.214 105.372V96.7306C122.214 81.1333 109.356 68.2761 93.7589 68.2761ZM115.469 105.372C115.469 107.269 113.783 108.745 112.096 108.745H37.9037C36.0067 108.745 34.5313 107.269 34.5313 105.372V96.7306C34.5313 84.7165 44.0161 75.0208 56.0303 75.0208C60.2458 75.0208 64.2505 78.3932 75 78.3932C85.5387 78.3932 89.7542 75.0208 93.7589 75.0208C105.773 75.0208 115.469 84.7165 115.469 96.7306V105.372ZM75 61.5313C89.7542 61.5313 101.979 49.5171 101.979 34.5521C101.979 19.7979 89.7542 7.57295 75 7.57295C60.035 7.57295 48.0208 19.7979 48.0208 34.5521C48.0208 49.5171 60.035 61.5313 75 61.5313ZM75 14.3177C85.9603 14.3177 95.2344 23.5918 95.2344 34.5521C95.2344 45.7232 85.9603 54.7865 75 54.7865C63.8289 54.7865 54.7656 45.7232 54.7656 34.5521C54.7656 23.5918 63.8289 14.3177 75 14.3177Z" fill="#E0F6F0"/>
</svg>
