<svg width="150" height="124" viewBox="0 0 150 124" fill="none" xmlns="http://www.w3.org/2000/svg">
<path opacity="0.37" d="M112.096 21.0625H101.979V10.1022C101.979 8.8376 100.715 7.57295 99.4499 7.57295H97.7637C96.2882 7.57295 95.2344 8.8376 95.2344 10.1022V21.0625H54.7656V10.1022C54.7656 8.8376 53.501 7.57295 52.2363 7.57295H50.5501C49.0747 7.57295 48.0208 8.8376 48.0208 10.1022V21.0625H37.9037C32.2127 21.0625 27.7865 25.6996 27.7865 31.1797V105.372C27.7865 111.063 32.2127 115.49 37.9037 115.49H112.096C117.576 115.49 122.214 111.063 122.214 105.372V31.1797C122.214 25.6996 117.576 21.0625 112.096 21.0625ZM37.9037 27.8073H112.096C113.783 27.8073 115.469 29.4935 115.469 31.1797V41.2969H34.5313V31.1797C34.5313 29.4935 36.0067 27.8073 37.9037 27.8073ZM112.096 108.745H37.9037C36.0067 108.745 34.5313 107.269 34.5313 105.372V48.0417H115.469V105.372C115.469 107.269 113.783 108.745 112.096 108.745Z" fill="#DEDBFF"/>
</svg>
