<svg width="11" height="13" viewBox="0 0 11 13" fill="none" xmlns="http://www.w3.org/2000/svg">
<path d="M1.5 6.18994V4.68994C1.5 4.2915 1.14844 3.93994 0.75 3.93994C0.328125 3.93994 0 4.2915 0 4.68994L0 6.18994C0 6.61182 0.328125 6.93994 0.75 6.93994C1.14844 6.93994 1.5 6.61182 1.5 6.18994ZM9.75 3.93994C9.32812 3.93994 9 4.2915 9 4.68994V6.18994C9 6.61182 9.32812 6.93994 9.75 6.93994C10.1484 6.93994 10.5 6.61182 10.5 6.18994V4.68994C10.5 4.2915 10.1484 3.93994 9.75 3.93994ZM9.42188 7.854C9.25781 7.33838 8.78906 6.98682 8.25 6.96338V2.43994C8.25 1.61963 7.57031 0.939941 6.75 0.939941H3.75C2.90625 0.939941 2.25 1.61963 2.25 2.43994V6.96338C1.6875 6.98682 1.21875 7.33838 1.05469 7.854L0.796875 8.604C0.679688 9.00244 0.75 9.44775 0.984375 9.77588C1.24219 10.1274 1.64062 10.3149 2.0625 10.3149H4.6875V11.5103C3.9375 11.604 3.32812 11.9556 3.04688 12.4009C2.88281 12.6353 3.09375 12.9399 3.39844 12.9399H7.07812C7.38281 12.9399 7.59375 12.6353 7.42969 12.4009C7.14844 11.9556 6.53906 11.604 5.8125 11.5103V10.3149H8.4375C8.83594 10.3149 9.23438 10.1274 9.49219 9.77588C9.72656 9.44775 9.79688 9.00244 9.67969 8.604L9.42188 7.854ZM3.375 2.43994C3.375 2.25244 3.53906 2.06494 3.75 2.06494H6.75C6.9375 2.06494 7.125 2.25244 7.125 2.43994V6.93994H3.375V2.43994ZM8.4375 9.18994H2.0625C1.92188 9.18994 1.82812 9.07275 1.875 8.95557L2.13281 8.20557C2.15625 8.13525 2.22656 8.06494 2.29688 8.06494H8.17969C8.25 8.06494 8.32031 8.13525 8.34375 8.20557L8.60156 8.95557C8.64844 9.07275 8.55469 9.18994 8.4375 9.18994Z" fill="#412C7D"/>
</svg>
