<svg width="11" height="11" viewBox="0 0 11 11" fill="none" xmlns="http://www.w3.org/2000/svg">
<path d="M9.39062 10.6094C9.50781 10.7266 9.67188 10.7266 9.78906 10.6094L10.2578 10.1641C10.3516 10.0469 10.3516 9.85938 10.2578 9.76562L6.01562 5.5L10.2578 1.25781C10.3516 1.16406 10.3516 0.976562 10.2578 0.859375L9.78906 0.414062C9.67188 0.296875 9.50781 0.296875 9.39062 0.414062L4.46875 5.3125C4.375 5.42969 4.375 5.59375 4.46875 5.71094L9.39062 10.6094ZM6.03906 10.6094L6.50781 10.1641C6.60156 10.0469 6.60156 9.85938 6.50781 9.76562L2.26562 5.5L6.50781 1.25781C6.60156 1.16406 6.60156 0.976562 6.50781 0.859375L6.03906 0.414062C5.92188 0.296875 5.75781 0.296875 5.64062 0.414062L0.71875 5.3125C0.625 5.42969 0.625 5.59375 0.71875 5.71094L5.64062 10.6094C5.75781 10.7266 5.92188 10.7266 6.03906 10.6094Z" fill="#574BD2"/>
</svg>
