<svg width="150" height="124" viewBox="0 0 150 124" fill="none" xmlns="http://www.w3.org/2000/svg">
<path opacity="0.3" d="M75.5 21.0625C62.432 21.2733 51.8932 31.812 51.8932 44.6693C51.8932 46.5663 53.3687 48.0417 55.2656 48.0417C56.9518 48.0417 58.638 46.5663 58.638 44.6693C58.638 35.3952 66.0151 28.0181 75.5 27.8073C77.1862 27.8073 78.8724 26.3319 78.8724 24.4349C78.8724 22.7487 77.1862 21.0625 75.5 21.0625ZM75.5 7.57295C53.7902 7.57295 38.1929 25.278 38.4037 44.8801C38.4037 54.1542 41.7761 62.5851 47.467 69.1192C52.9471 75.2316 58.0057 85.3488 58.638 88.5104V104.529C58.638 105.162 58.8488 105.794 59.0596 106.426L64.3289 114.014C64.9613 115.068 66.0151 115.49 67.069 115.49H83.7202C84.7741 115.49 85.828 115.068 86.4603 114.014L91.7296 106.215C91.9404 105.794 92.1512 105.162 92.1512 104.529L92.362 88.5104C92.7835 85.3488 98.0529 75.2316 103.322 69.1192C109.013 62.5851 112.386 54.1542 112.386 44.6693C112.386 24.2242 95.9451 7.78373 75.5 7.78373V7.57295ZM85.4064 103.475L81.8232 108.745H68.966L65.3828 103.475V102H85.4064V103.475ZM85.6172 95.2552H65.3828L65.172 88.5104H85.6172V95.2552ZM98.2637 64.6929C95.3128 68.0653 90.6758 74.8101 87.5142 81.7656H63.2751C60.1134 74.8101 55.4764 68.0653 52.5256 64.6929C47.8885 59.4235 45.1484 52.468 45.1484 44.8801C45.1484 44.8801 45.1484 44.8801 45.1484 44.6693C44.9377 28.4396 57.7949 14.3177 75.5 14.3177C92.1512 14.3177 105.852 28.0181 105.852 44.6693C105.641 52.468 102.901 59.4235 98.2637 64.6929ZM28.2865 44.6693C28.2865 42.9831 26.6003 41.2969 24.9141 41.2969H11.4245C9.52753 41.2969 8.05211 42.9831 8.05211 44.6693C8.05211 46.5663 9.52753 48.0417 11.4245 48.0417H24.9141C26.6003 48.0417 28.2865 46.5663 28.2865 44.6693ZM119.341 21.0625C119.763 21.0625 120.395 21.0625 120.817 20.8518L134.306 14.107C135.36 13.4746 136.203 12.4208 136.203 10.9453C136.203 9.25915 134.517 7.57295 132.831 7.57295C132.198 7.57295 131.566 7.78373 131.145 7.9945L117.655 14.7393C116.601 15.3716 115.758 16.4255 115.758 17.9009C115.758 19.5871 117.444 21.2733 119.13 21.2733L119.341 21.0625ZM139.575 41.2969H126.086C124.189 41.2969 122.714 42.9831 122.714 44.6693C122.714 46.5663 124.189 48.0417 126.086 48.0417H139.575C141.262 48.0417 142.948 46.5663 142.948 44.6693C142.948 42.9831 141.262 41.2969 139.575 41.2969ZM33.1343 14.7393L19.6447 7.9945C19.2232 7.78373 18.5908 7.78373 18.1693 7.78373C16.2723 7.78373 14.7969 9.25915 14.7969 11.1561C14.7969 12.4208 15.4292 13.4746 16.4831 14.107L29.9727 20.8518C30.3942 21.0625 31.0265 21.0625 31.6589 21.0625C33.3451 21.0625 35.0313 19.5871 35.0313 17.6901C35.0313 16.4255 34.1882 15.3716 33.1343 14.7393ZM134.306 75.4424L120.817 68.6976C120.395 68.4868 119.763 68.4868 119.341 68.4868C117.444 68.4868 115.969 69.9623 115.969 71.8592C115.969 73.1239 116.601 74.1777 117.655 74.8101L131.145 81.5549C131.566 81.7656 132.198 81.9764 132.62 81.9764C134.517 81.9764 135.992 80.2902 135.992 78.3932C135.992 77.1286 135.36 76.0747 134.306 75.4424ZM31.6589 68.2761C31.0265 68.4868 30.3942 68.4868 29.9727 68.6976L16.4831 75.4424C15.4292 76.0747 14.5861 77.1286 14.5861 78.604C14.5861 80.2902 16.2723 81.9764 17.9585 81.9764C18.5908 81.9764 19.2232 81.7656 19.6447 81.5549L33.1343 74.8101C34.1882 74.1777 35.0313 73.1239 35.0313 71.6484C35.0313 69.9623 33.3451 68.2761 31.6589 68.2761Z" fill="#FEDFC3"/>
</svg>
