<svg width="150" height="124" viewBox="0 0 150 124" fill="none" xmlns="http://www.w3.org/2000/svg">
<path opacity="0.3" d="M51.604 51.2033C51.1825 50.9925 50.7609 50.7818 50.3394 50.7818C49.9178 50.7818 49.4963 50.9925 49.2855 51.2033L34.3205 66.1683L26.1003 57.9481C25.6787 57.7373 25.2572 57.5265 24.8356 57.5265C24.4141 57.5265 23.9925 57.7373 23.571 57.9481L21.2525 60.4774C20.8309 60.6882 20.8309 61.1097 20.8309 61.5313C20.8309 62.1636 20.8309 62.5851 21.2525 62.7959L33.0558 74.5993C33.2666 75.0208 33.6882 75.2316 34.3205 75.2316C34.742 75.2316 35.1636 75.0208 35.3744 74.5993L53.9225 56.0511C54.3441 55.8403 54.5549 55.4188 54.5549 54.9973C54.5549 54.3649 54.3441 53.9434 53.9225 53.7326L51.604 51.2033ZM34.1097 88.5104C30.5265 88.5104 27.3649 91.672 27.3649 95.2552C27.3649 99.0492 30.5265 102 34.1097 102C37.9037 102 40.8545 99.0492 40.8545 95.2552C40.8545 91.672 37.9037 88.5104 34.1097 88.5104ZM51.604 17.4794C51.1825 17.2686 50.7609 17.0578 50.3394 17.0578C49.9178 17.0578 49.4963 17.2686 49.2855 17.4794L34.3205 32.4444L26.1003 24.2242C25.6787 24.0134 25.2572 23.8026 24.8356 23.8026C24.4141 23.8026 23.9925 24.0134 23.571 24.2242L21.2525 26.7534C20.8309 26.9642 20.8309 27.3858 20.8309 27.8073C20.8309 28.4396 20.8309 28.8612 21.2525 29.072L33.0558 40.8753C33.2666 41.2969 33.6882 41.5077 34.3205 41.5077C34.742 41.5077 35.1636 41.2969 35.3744 40.8753L53.9225 22.3272C54.3441 22.1164 54.5549 21.6949 54.5549 21.2733C54.5549 20.641 54.3441 20.2194 53.9225 20.0087L51.604 17.4794ZM127.061 91.8828H62.9858C61.932 91.8828 61.2996 92.7259 61.2996 93.569V96.9414C61.2996 97.9953 61.932 98.6276 62.9858 98.6276H127.061C127.904 98.6276 128.748 97.9953 128.748 96.9414V93.569C128.748 92.7259 127.904 91.8828 127.061 91.8828ZM127.061 24.4349H62.9858C61.932 24.4349 61.2996 25.278 61.2996 26.1211V29.4935C61.2996 30.5474 61.932 31.1797 62.9858 31.1797H127.061C127.904 31.1797 128.748 30.5474 128.748 29.4935V26.1211C128.748 25.278 127.904 24.4349 127.061 24.4349ZM127.061 58.1589H62.9858C61.932 58.1589 61.2996 59.002 61.2996 59.8451V63.2175C61.2996 64.2713 61.932 64.9037 62.9858 64.9037H127.061C127.904 64.9037 128.748 64.2713 128.748 63.2175V59.8451C128.748 59.002 127.904 58.1589 127.061 58.1589Z" fill="#F7CFD0"/>
</svg>
