<svg xmlns="http://www.w3.org/2000/svg" viewBox="0 0 14.9 17.49"><defs><style>.cls-1{fill:#fff;}.cls-2{fill:#216478;}</style></defs><title>Asset 4</title><g id="Layer_2" data-name="Layer 2"><g id="Layer_1-2" data-name="Layer 1"><path class="cls-1" d="M12.72,0H2.19A2.19,2.19,0,0,0,0,2.19v11a2.19,2.19,0,0,0,2.19,2.19h8.35l4.34,2.15V13.41a2.11,2.11,0,0,0,0-.26v-11A2.19,2.19,0,0,0,12.72,0Z"/><path class="cls-2" d="M7.67,13a7.32,7.32,0,0,1-5-1.53.15.15,0,0,1,0-.21.15.15,0,0,1,.21,0,7.18,7.18,0,0,0,4.79,1.45,7.18,7.18,0,0,0,4.79-1.45.15.15,0,0,1,.21,0,.15.15,0,0,1,0,.21A7.32,7.32,0,0,1,7.67,13Z"/></g></g></svg>