<?xml version="1.0" encoding="utf-8"?>
<!-- Generator: Adobe Illustrator 22.1.0, SVG Export Plug-In . SVG Version: 6.00 Build 0)  -->
<svg version="1.1" id="Layer_1" xmlns="http://www.w3.org/2000/svg" xmlns:xlink="http://www.w3.org/1999/xlink" x="0px" y="0px"
	 viewBox="0 0 16.4 15.9" style="enable-background:new 0 0 16.4 15.9;" xml:space="preserve">
<style type="text/css">
	.st0{fill:#FFFFFF;}
	.st1{fill:#216478;}
</style>
<g>
	<path class="st0" d="M16.4,9.6c0-0.3-0.3-0.5-0.6-0.5c-0.3,0-0.5,0.3-0.5,0.6c0.1,1.7-0.3,3-1.2,3.9c-1.1,1.2-2.8,1.2-2.8,1.2H1.8
		l3.7-4.5l3.3,2.5c0.1,0.1,0.3,0.1,0.4,0.1c0.1,0,0.3-0.1,0.4-0.2l4.2-5.5c0.2-0.2,0.1-0.6-0.1-0.8c-0.2-0.2-0.6-0.1-0.8,0.1
		l-3.8,5.1L5.7,9.1C5.5,8.9,5.1,9,4.9,9.2l-3.8,4.7V5.1c0-2.2,1.8-4,4-4h0.3c2.2,0,4,1.8,4,4c0,0.3,0.2,0.6,0.6,0.6
		c0.3,0,0.6-0.2,0.6-0.6C10.5,2.3,8.2,0,5.4,0H5.1C2.3,0,0,2.3,0,5.1v10.8h0.6h10.8c0.1,0,2.1,0,3.6-1.6C16,13.3,16.5,11.7,16.4,9.6
		z"/>
</g>
</svg>
